<?xml version="1.0" encoding="UTF-8" standalone="yes"?><svg xmlns="http://www.w3.org/2000/svg" xmlns:xlink="http://www.w3.org/1999/xlink" height="1495pt" style="width:1619px;height:1495px;" version="1.1" viewBox="0 0 1619 1495" width="1619pt"><defs/><g><polygon fill="#FFFFFF" points="22,24,277,24,284,50.8389,1618,50.8389,1618,1494,22,1494,22,24" style="stroke: #000000; stroke-width: 2.0;"/><line style="stroke: #000000; stroke-width: 2.0;" x1="22" x2="284" y1="50.8389" y2="50.8389"/><text fill="#000000" font-family="Gill sans" font-size="18" font-weight="bold" lengthAdjust="spacingAndGlyphs" textLength="249" x="25" y="43.6113">choreography.cif.generated</text><rect fill="#FFFFFF" height="232.7188" style="stroke: #606060; stroke-width: 1.5;" width="292" x="1037" y="517.5"/><text fill="#606060" font-family="Gill sans" font-size="18" lengthAdjust="spacingAndGlyphs" textLength="49" x="1158.5" y="539.0234">Action</text><line style="stroke: #606060; stroke-width: 1.5;" x1="1038" x2="1328" y1="548.1719" y2="548.1719"/><polygon fill="none" points="1048,559.0078,1052,563.0078,1048,567.0078,1044,563.0078" style="stroke: #B38D22; stroke-width: 1.0;"/><text fill="#606060" font-family="Gill sans" font-size="18" lengthAdjust="spacingAndGlyphs" textLength="111" x="1058" y="568.6953">String actionID</text><polygon fill="none" points="1048,579.6797,1052,583.6797,1048,587.6797,1044,583.6797" style="stroke: #B38D22; stroke-width: 1.0;"/><text fill="#606060" font-family="Gill sans" font-size="18" lengthAdjust="spacingAndGlyphs" textLength="86" x="1058" y="589.3672">String actor</text><polygon fill="none" points="1048,600.3516,1052,604.3516,1048,608.3516,1044,604.3516" style="stroke: #B38D22; stroke-width: 1.0;"/><text fill="#606060" font-family="Gill sans" font-size="18" lengthAdjust="spacingAndGlyphs" textLength="154" x="1058" y="610.0391">String actionContent</text><line style="stroke: #606060; stroke-width: 1.5;" x1="1038" x2="1328" y1="618.1875" y2="618.1875"/><ellipse cx="1048" cy="634.0234" fill="#84BE84" rx="3" ry="3" style="stroke: #038048; stroke-width: 1.0;"/><text fill="#606060" font-family="Gill sans" font-size="18" lengthAdjust="spacingAndGlyphs" textLength="150" x="1058" y="638.7109">String getActionID()</text><ellipse cx="1048" cy="654.6953" fill="#84BE84" rx="3" ry="3" style="stroke: #038048; stroke-width: 1.0;"/><text fill="#606060" font-family="Gill sans" font-size="18" lengthAdjust="spacingAndGlyphs" textLength="125" x="1058" y="659.3828">String getActor()</text><ellipse cx="1048" cy="675.3672" fill="#84BE84" rx="3" ry="3" style="stroke: #038048; stroke-width: 1.0;"/><text fill="#606060" font-family="Gill sans" font-size="18" lengthAdjust="spacingAndGlyphs" textLength="193" x="1058" y="680.0547">String getActionContent()</text><ellipse cx="1048" cy="696.0391" fill="#84BE84" rx="3" ry="3" style="stroke: #038048; stroke-width: 1.0;"/><text fill="#606060" font-family="Gill sans" font-size="18" lengthAdjust="spacingAndGlyphs" textLength="228" x="1058" y="700.7266">void setActionID (String value)</text><ellipse cx="1048" cy="716.7109" fill="#84BE84" rx="3" ry="3" style="stroke: #038048; stroke-width: 1.0;"/><text fill="#606060" font-family="Gill sans" font-size="18" lengthAdjust="spacingAndGlyphs" textLength="203" x="1058" y="721.3984">void setActor (String value)</text><ellipse cx="1048" cy="737.3828" fill="#84BE84" rx="3" ry="3" style="stroke: #038048; stroke-width: 1.0;"/><text fill="#606060" font-family="Gill sans" font-size="18" lengthAdjust="spacingAndGlyphs" textLength="265" x="1058" y="742.0703">void setActionContent (String value</text><rect fill="#FFFFFF" height="294.7344" style="stroke: #606060; stroke-width: 1.5;" width="336" x="38" y="1182.5"/><text fill="#606060" font-family="Gill sans" font-size="18" lengthAdjust="spacingAndGlyphs" textLength="107" x="152.5" y="1204.0234">Choreography</text><line style="stroke: #606060; stroke-width: 1.5;" x1="39" x2="373" y1="1213.1719" y2="1213.1719"/><polygon fill="none" points="49,1224.0078,53,1228.0078,49,1232.0078,45,1228.0078" style="stroke: #B38D22; stroke-width: 1.0;"/><text fill="#606060" font-family="Gill sans" font-size="18" lengthAdjust="spacingAndGlyphs" textLength="119" x="59" y="1233.6953">String choreoID</text><polygon fill="none" points="49,1244.6797,53,1248.6797,49,1252.6797,45,1248.6797" style="stroke: #B38D22; stroke-width: 1.0;"/><text fill="#606060" font-family="Gill sans" font-size="18" lengthAdjust="spacingAndGlyphs" textLength="150" x="59" y="1254.3672">PeerList participants</text><polygon fill="none" points="49,1265.3516,53,1269.3516,49,1273.3516,45,1269.3516" style="stroke: #B38D22; stroke-width: 1.0;"/><text fill="#606060" font-family="Gill sans" font-size="18" lengthAdjust="spacingAndGlyphs" textLength="155" x="59" y="1275.0391">MessageList alphabet</text><polygon fill="none" points="49,1286.0234,53,1290.0234,49,1294.0234,45,1290.0234" style="stroke: #B38D22; stroke-width: 1.0;"/><text fill="#606060" font-family="Gill sans" font-size="18" lengthAdjust="spacingAndGlyphs" textLength="200" x="59" y="1295.7109">StateMachine stateMachine</text><line style="stroke: #606060; stroke-width: 1.5;" x1="39" x2="373" y1="1303.8594" y2="1303.8594"/><ellipse cx="49" cy="1319.6953" fill="#84BE84" rx="3" ry="3" style="stroke: #038048; stroke-width: 1.0;"/><text fill="#606060" font-family="Gill sans" font-size="18" lengthAdjust="spacingAndGlyphs" textLength="159" x="59" y="1324.3828">String getChoreoID()</text><ellipse cx="49" cy="1340.3672" fill="#84BE84" rx="3" ry="3" style="stroke: #038048; stroke-width: 1.0;"/><text fill="#606060" font-family="Gill sans" font-size="18" lengthAdjust="spacingAndGlyphs" textLength="185" x="59" y="1345.0547">PeerList getParticipants()</text><ellipse cx="49" cy="1361.0391" fill="#84BE84" rx="3" ry="3" style="stroke: #038048; stroke-width: 1.0;"/><text fill="#606060" font-family="Gill sans" font-size="18" lengthAdjust="spacingAndGlyphs" textLength="194" x="59" y="1365.7266">MessageList getAlphabet()</text><ellipse cx="49" cy="1381.7109" fill="#84BE84" rx="3" ry="3" style="stroke: #038048; stroke-width: 1.0;"/><text fill="#606060" font-family="Gill sans" font-size="18" lengthAdjust="spacingAndGlyphs" textLength="236" x="59" y="1386.3984">StateMachine getStateMachine()</text><ellipse cx="49" cy="1402.3828" fill="#84BE84" rx="3" ry="3" style="stroke: #038048; stroke-width: 1.0;"/><text fill="#606060" font-family="Gill sans" font-size="18" lengthAdjust="spacingAndGlyphs" textLength="232" x="59" y="1407.0703">void setChoreoID(String value)</text><ellipse cx="49" cy="1423.0547" fill="#84BE84" rx="3" ry="3" style="stroke: #038048; stroke-width: 1.0;"/><text fill="#606060" font-family="Gill sans" font-size="18" lengthAdjust="spacingAndGlyphs" textLength="258" x="59" y="1427.7422">void setParticipants(PeerList value)</text><ellipse cx="49" cy="1443.7266" fill="#84BE84" rx="3" ry="3" style="stroke: #038048; stroke-width: 1.0;"/><text fill="#606060" font-family="Gill sans" font-size="18" lengthAdjust="spacingAndGlyphs" textLength="267" x="59" y="1448.4141">void setAlphabet(MessageList value)</text><ellipse cx="49" cy="1464.3984" fill="#84BE84" rx="3" ry="3" style="stroke: #038048; stroke-width: 1.0;"/><text fill="#606060" font-family="Gill sans" font-size="18" lengthAdjust="spacingAndGlyphs" textLength="309" x="59" y="1469.0859">void setStateMachine(StateMachine value)</text><rect fill="#FFFFFF" height="88.0156" style="stroke: #606060; stroke-width: 1.5;" width="183" x="75.75" y="1023"/><text fill="#606060" font-family="Gill sans" font-size="18" lengthAdjust="spacingAndGlyphs" textLength="60" x="137.25" y="1044.5234">PeerList</text><line style="stroke: #606060; stroke-width: 1.5;" x1="76.75" x2="257.75" y1="1053.6719" y2="1053.6719"/><polygon fill="none" points="86.75,1064.5078,90.75,1068.5078,86.75,1072.5078,82.75,1068.5078" style="stroke: #B38D22; stroke-width: 1.0;"/><text fill="#606060" font-family="Gill sans" font-size="18" lengthAdjust="spacingAndGlyphs" textLength="121" x="96.75" y="1074.1953">List&lt;Peer&gt; peer</text><line style="stroke: #606060; stroke-width: 1.5;" x1="76.75" x2="257.75" y1="1082.3438" y2="1082.3438"/><ellipse cx="86.75" cy="1098.1797" fill="#84BE84" rx="3" ry="3" style="stroke: #038048; stroke-width: 1.0;"/><text fill="#606060" font-family="Gill sans" font-size="18" lengthAdjust="spacingAndGlyphs" textLength="156" x="96.75" y="1102.8672">List&lt;Peer&gt; getPeer()</text><rect fill="#FFFFFF" height="88.0156" style="stroke: #606060; stroke-width: 1.5;" width="287" x="345.75" y="853"/><text fill="#606060" font-family="Gill sans" font-size="18" lengthAdjust="spacingAndGlyphs" textLength="88" x="445.25" y="874.5234">MessageList</text><line style="stroke: #606060; stroke-width: 1.5;" x1="346.75" x2="631.75" y1="883.6719" y2="883.6719"/><polygon fill="none" points="356.75,894.5078,360.75,898.5078,356.75,902.5078,352.75,898.5078" style="stroke: #B38D22; stroke-width: 1.0;"/><text fill="#606060" font-family="Gill sans" font-size="18" lengthAdjust="spacingAndGlyphs" textLength="237" x="366.75" y="904.1953">List&lt;Object&gt; messageOrAction</text><ellipse cx="356.75" cy="920.1797" fill="none" rx="3" ry="3" style="stroke: #038048; stroke-width: 1.0;"/><text fill="#606060" font-family="Gill sans" font-size="18" lengthAdjust="spacingAndGlyphs" textLength="260" x="366.75" y="924.8672">List&lt;Object&gt; getMessageOrAction</text><line style="stroke: #606060; stroke-width: 1.5;" x1="346.75" x2="631.75" y1="933.0156" y2="933.0156"/><rect fill="#FFFFFF" height="191.375" style="stroke: #606060; stroke-width: 1.5;" width="493" x="397.75" y="64.5"/><text fill="#606060" font-family="Gill sans" font-size="18" lengthAdjust="spacingAndGlyphs" textLength="98" x="595.25" y="86.0234">StateMachine</text><line style="stroke: #606060; stroke-width: 1.5;" x1="398.75" x2="889.75" y1="95.1719" y2="95.1719"/><polygon fill="none" points="408.75,106.0078,412.75,110.0078,408.75,114.0078,404.75,110.0078" style="stroke: #B38D22; stroke-width: 1.0;"/><text fill="#606060" font-family="Gill sans" font-size="18" lengthAdjust="spacingAndGlyphs" textLength="121" x="418.75" y="115.6953">InitialState initial</text><polygon fill="none" points="408.75,126.6797,412.75,130.6797,408.75,134.6797,404.75,130.6797" style="stroke: #B38D22; stroke-width: 1.0;"/><text fill="#606060" font-family="Gill sans" font-size="18" lengthAdjust="spacingAndGlyphs" textLength="430" x="418.75" y="136.3672">List&lt;BaseState&gt; interactionOrInternalActionOrSubsetJoin</text><polygon fill="none" points="408.75,147.3516,412.75,151.3516,408.75,155.3516,404.75,151.3516" style="stroke: #B38D22; stroke-width: 1.0;"/><text fill="#606060" font-family="Gill sans" font-size="18" lengthAdjust="spacingAndGlyphs" textLength="153" x="418.75" y="157.0391">List&lt;FinalState&gt; final</text><line style="stroke: #606060; stroke-width: 1.5;" x1="398.75" x2="889.75" y1="165.1875" y2="165.1875"/><ellipse cx="408.75" cy="181.0234" fill="#84BE84" rx="3" ry="3" style="stroke: #038048; stroke-width: 1.0;"/><text fill="#606060" font-family="Gill sans" font-size="18" lengthAdjust="spacingAndGlyphs" textLength="157" x="418.75" y="185.7109">InitialState getInitial()</text><ellipse cx="408.75" cy="201.6953" fill="#84BE84" rx="3" ry="3" style="stroke: #038048; stroke-width: 1.0;"/><text fill="#606060" font-family="Gill sans" font-size="18" lengthAdjust="spacingAndGlyphs" textLength="466" x="418.75" y="206.3828">List&lt;BaseState&gt; getInteractionOrInternalActionOrSubsetJoin()</text><ellipse cx="408.75" cy="222.3672" fill="#84BE84" rx="3" ry="3" style="stroke: #038048; stroke-width: 1.0;"/><text fill="#606060" font-family="Gill sans" font-size="18" lengthAdjust="spacingAndGlyphs" textLength="191" x="418.75" y="227.0547">List&lt;FinalState&gt; getFinal()</text><ellipse cx="408.75" cy="243.0391" fill="#84BE84" rx="3" ry="3" style="stroke: #038048; stroke-width: 1.0;"/><text fill="#606060" font-family="Gill sans" font-size="18" lengthAdjust="spacingAndGlyphs" textLength="230" x="418.75" y="247.7266">void setInitial(InitialState value)</text><rect fill="#FFFFFF" height="294.7344" style="stroke: #606060; stroke-width: 1.5;" width="306" x="275" y="486.5"/><text fill="#606060" font-family="Gill sans" font-size="18" lengthAdjust="spacingAndGlyphs" textLength="62" x="397" y="508.0234">Message</text><line style="stroke: #606060; stroke-width: 1.5;" x1="276" x2="580" y1="517.1719" y2="517.1719"/><polygon fill="none" points="286,528.0078,290,532.0078,286,536.0078,282,532.0078" style="stroke: #B38D22; stroke-width: 1.0;"/><text fill="#606060" font-family="Gill sans" font-size="18" lengthAdjust="spacingAndGlyphs" textLength="95" x="296" y="537.6953">String msgID</text><polygon fill="none" points="286,548.6797,290,552.6797,286,556.6797,282,552.6797" style="stroke: #B38D22; stroke-width: 1.0;"/><text fill="#606060" font-family="Gill sans" font-size="18" lengthAdjust="spacingAndGlyphs" textLength="97" x="296" y="558.3672">String sender</text><polygon fill="none" points="286,569.3516,290,573.3516,286,577.3516,282,573.3516" style="stroke: #B38D22; stroke-width: 1.0;"/><text fill="#606060" font-family="Gill sans" font-size="18" lengthAdjust="spacingAndGlyphs" textLength="108" x="296" y="579.0391">String receiver</text><polygon fill="none" points="286,590.0234,290,594.0234,286,598.0234,282,594.0234" style="stroke: #B38D22; stroke-width: 1.0;"/><text fill="#606060" font-family="Gill sans" font-size="18" lengthAdjust="spacingAndGlyphs" textLength="171" x="296" y="599.7109">String messageContent</text><line style="stroke: #606060; stroke-width: 1.5;" x1="276" x2="580" y1="607.8594" y2="607.8594"/><ellipse cx="286" cy="623.6953" fill="#84BE84" rx="3" ry="3" style="stroke: #038048; stroke-width: 1.0;"/><text fill="#606060" font-family="Gill sans" font-size="18" lengthAdjust="spacingAndGlyphs" textLength="130" x="296" y="628.3828">String getMsgID()</text><ellipse cx="286" cy="644.3672" fill="#84BE84" rx="3" ry="3" style="stroke: #038048; stroke-width: 1.0;"/><text fill="#606060" font-family="Gill sans" font-size="18" lengthAdjust="spacingAndGlyphs" textLength="133" x="296" y="649.0547">String getSender()</text><ellipse cx="286" cy="665.0391" fill="#84BE84" rx="3" ry="3" style="stroke: #038048; stroke-width: 1.0;"/><text fill="#606060" font-family="Gill sans" font-size="18" lengthAdjust="spacingAndGlyphs" textLength="147" x="296" y="669.7266">String getReceiver()</text><ellipse cx="286" cy="685.7109" fill="#84BE84" rx="3" ry="3" style="stroke: #038048; stroke-width: 1.0;"/><text fill="#606060" font-family="Gill sans" font-size="18" lengthAdjust="spacingAndGlyphs" textLength="206" x="296" y="690.3984">String getMessageContent()</text><ellipse cx="286" cy="706.3828" fill="#84BE84" rx="3" ry="3" style="stroke: #038048; stroke-width: 1.0;"/><text fill="#606060" font-family="Gill sans" font-size="18" lengthAdjust="spacingAndGlyphs" textLength="203" x="296" y="711.0703">void setMsgID(String value)</text><ellipse cx="286" cy="727.0547" fill="#84BE84" rx="3" ry="3" style="stroke: #038048; stroke-width: 1.0;"/><text fill="#606060" font-family="Gill sans" font-size="18" lengthAdjust="spacingAndGlyphs" textLength="206" x="296" y="731.7422">void setSender(String value)</text><ellipse cx="286" cy="747.7266" fill="#84BE84" rx="3" ry="3" style="stroke: #038048; stroke-width: 1.0;"/><text fill="#606060" font-family="Gill sans" font-size="18" lengthAdjust="spacingAndGlyphs" textLength="220" x="296" y="752.4141">void setReceiver(String value)</text><ellipse cx="286" cy="768.3984" fill="#84BE84" rx="3" ry="3" style="stroke: #038048; stroke-width: 1.0;"/><text fill="#606060" font-family="Gill sans" font-size="18" lengthAdjust="spacingAndGlyphs" textLength="279" x="296" y="773.0859">void setMessageContent(String value)</text><rect fill="#FFFFFF" height="108.6875" style="stroke: #606060; stroke-width: 1.5;" width="235" x="75.75" y="842.5"/><text fill="#606060" font-family="Gill sans" font-size="18" lengthAdjust="spacingAndGlyphs" textLength="34" x="176.25" y="864.0234">Peer</text><line style="stroke: #606060; stroke-width: 1.5;" x1="76.75" x2="309.75" y1="873.1719" y2="873.1719"/><polygon fill="none" points="86.75,884.0078,90.75,888.0078,86.75,892.0078,82.75,888.0078" style="stroke: #B38D22; stroke-width: 1.0;"/><text fill="#606060" font-family="Gill sans" font-size="18" lengthAdjust="spacingAndGlyphs" textLength="100" x="96.75" y="893.6953">String peerID</text><line style="stroke: #606060; stroke-width: 1.5;" x1="76.75" x2="309.75" y1="901.8438" y2="901.8438"/><ellipse cx="86.75" cy="917.6797" fill="#84BE84" rx="3" ry="3" style="stroke: #038048; stroke-width: 1.0;"/><text fill="#606060" font-family="Gill sans" font-size="18" lengthAdjust="spacingAndGlyphs" textLength="135" x="96.75" y="922.3672">String getPeerID()</text><ellipse cx="86.75" cy="938.3516" fill="#84BE84" rx="3" ry="3" style="stroke: #038048; stroke-width: 1.0;"/><text fill="#606060" font-family="Gill sans" font-size="18" lengthAdjust="spacingAndGlyphs" textLength="208" x="96.75" y="943.0391">void setPeerID(String value)</text><rect fill="#FFFFFF" height="46.6719" style="stroke: #606060; stroke-width: 1.5;" width="83" x="933.75" y="873.5"/><text fill="#606060" font-family="Gill sans" font-size="18" lengthAdjust="spacingAndGlyphs" textLength="77" x="936.75" y="895.0234">InitialState</text><line style="stroke: #606060; stroke-width: 1.5;" x1="934.75" x2="1015.75" y1="904.1719" y2="904.1719"/><line style="stroke: #606060; stroke-width: 1.5;" x1="934.75" x2="1015.75" y1="912.1719" y2="912.1719"/><rect fill="#FFFFFF" height="46.6719" style="stroke: #606060; stroke-width: 1.5;" width="76" x="653" y="610.5"/><text fill="#606060" font-family="Gill sans" font-size="18" lengthAdjust="spacingAndGlyphs" textLength="70" x="656" y="632.0234">FinalState</text><line style="stroke: #606060; stroke-width: 1.5;" x1="654" x2="728" y1="641.1719" y2="641.1719"/><line style="stroke: #606060; stroke-width: 1.5;" x1="654" x2="728" y1="649.1719" y2="649.1719"/><rect fill="#FFFFFF" height="108.6875" style="stroke: #606060; stroke-width: 1.5;" width="238" x="736" y="316.5"/><text fill="#606060" font-family="Gill sans" font-size="18" lengthAdjust="spacingAndGlyphs" textLength="71" x="819.5" y="338.0234">BaseState</text><line style="stroke: #606060; stroke-width: 1.5;" x1="737" x2="973" y1="347.1719" y2="347.1719"/><polygon fill="none" points="747,358.0078,751,362.0078,747,366.0078,743,362.0078" style="stroke: #B38D22; stroke-width: 1.0;"/><text fill="#606060" font-family="Gill sans" font-size="18" lengthAdjust="spacingAndGlyphs" textLength="102" x="757" y="367.6953">String stateID</text><line style="stroke: #606060; stroke-width: 1.5;" x1="737" x2="973" y1="375.8438" y2="375.8438"/><ellipse cx="747" cy="391.6797" fill="#84BE84" rx="3" ry="3" style="stroke: #038048; stroke-width: 1.0;"/><text fill="#606060" font-family="Gill sans" font-size="18" lengthAdjust="spacingAndGlyphs" textLength="138" x="757" y="396.3672">String getStateID()</text><ellipse cx="747" cy="412.3516" fill="#84BE84" rx="3" ry="3" style="stroke: #038048; stroke-width: 1.0;"/><text fill="#606060" font-family="Gill sans" font-size="18" lengthAdjust="spacingAndGlyphs" textLength="211" x="757" y="417.0391">void setStateID(String value)</text><rect fill="#FFFFFF" height="88.0156" style="stroke: #606060; stroke-width: 1.5;" width="237" x="764.75" y="590"/><text fill="#606060" font-family="Gill sans" font-size="18" lengthAdjust="spacingAndGlyphs" textLength="103" x="831.75" y="611.5234">OneSuccState</text><line style="stroke: #606060; stroke-width: 1.5;" x1="765.75" x2="1000.75" y1="620.6719" y2="620.6719"/><polygon fill="none" points="775.75,631.5078,779.75,635.5078,775.75,639.5078,771.75,635.5078" style="stroke: #B38D22; stroke-width: 1.0;"/><text fill="#606060" font-family="Gill sans" font-size="18" lengthAdjust="spacingAndGlyphs" textLength="157" x="785.75" y="641.1953">List String successors</text><line style="stroke: #606060; stroke-width: 1.5;" x1="765.75" x2="1000.75" y1="649.3438" y2="649.3438"/><ellipse cx="775.75" cy="665.1797" fill="#84BE84" rx="3" ry="3" style="stroke: #038048; stroke-width: 1.0;"/><text fill="#606060" font-family="Gill sans" font-size="18" lengthAdjust="spacingAndGlyphs" textLength="210" x="785.75" y="669.8672">List&lt;String&gt; getSuccessors()</text><rect fill="#FFFFFF" height="88.0156" style="stroke: #606060; stroke-width: 1.5;" width="237" x="1364.75" y="590"/><text fill="#606060" font-family="Gill sans" font-size="18" lengthAdjust="spacingAndGlyphs" textLength="123" x="1421.75" y="611.5234">SeveralSuccState</text><line style="stroke: #606060; stroke-width: 1.5;" x1="1365.75" x2="1600.75" y1="620.6719" y2="620.6719"/><polygon fill="none" points="1375.75,631.5078,1379.75,635.5078,1375.75,639.5078,1371.75,635.5078" style="stroke: #B38D22; stroke-width: 1.0;"/><text fill="#606060" font-family="Gill sans" font-size="18" lengthAdjust="spacingAndGlyphs" textLength="157" x="1385.75" y="641.1953">List String successors</text><line style="stroke: #606060; stroke-width: 1.5;" x1="1365.75" x2="1600.75" y1="649.3438" y2="649.3438"/><ellipse cx="1375.75" cy="665.1797" fill="#84BE84" rx="3" ry="3" style="stroke: #038048; stroke-width: 1.0;"/><text fill="#606060" font-family="Gill sans" font-size="18" lengthAdjust="spacingAndGlyphs" textLength="210" x="1385.75" y="669.8672">List&lt;String&gt; getSuccessors()</text><rect fill="#FFFFFF" height="108.6875" style="stroke: #606060; stroke-width: 1.5;" width="250" x="1158" y="842.5"/><text fill="#606060" font-family="Gill sans" font-size="18" lengthAdjust="spacingAndGlyphs" textLength="143" x="1211.5" y="864.0234">InternalActionState</text><line style="stroke: #606060; stroke-width: 1.5;" x1="1159" x2="1407" y1="873.1719" y2="873.1719"/><polygon fill="none" points="1169,884.0078,1173,888.0078,1169,892.0078,1165,888.0078" style="stroke: #B38D22; stroke-width: 1.0;"/><text fill="#606060" font-family="Gill sans" font-size="18" lengthAdjust="spacingAndGlyphs" textLength="111" x="1179" y="893.6953">String actionID</text><line style="stroke: #606060; stroke-width: 1.5;" x1="1159" x2="1407" y1="901.8438" y2="901.8438"/><ellipse cx="1169" cy="917.6797" fill="#84BE84" rx="3" ry="3" style="stroke: #038048; stroke-width: 1.0;"/><text fill="#606060" font-family="Gill sans" font-size="18" lengthAdjust="spacingAndGlyphs" textLength="150" x="1179" y="922.3672">String getActionID()</text><ellipse cx="1169" cy="938.3516" fill="#84BE84" rx="3" ry="3" style="stroke: #038048; stroke-width: 1.0;"/><text fill="#606060" font-family="Gill sans" font-size="18" lengthAdjust="spacingAndGlyphs" textLength="223" x="1179" y="943.0391">void setActionID(String value)</text><rect fill="#FFFFFF" height="46.6719" style="stroke: #606060; stroke-width: 1.5;" width="71" x="1051.75" y="873.5"/><text fill="#606060" font-family="Gill sans" font-size="18" lengthAdjust="spacingAndGlyphs" textLength="65" x="1054.75" y="895.0234">JoinState</text><line style="stroke: #606060; stroke-width: 1.5;" x1="1052.75" x2="1121.75" y1="904.1719" y2="904.1719"/><line style="stroke: #606060; stroke-width: 1.5;" x1="1052.75" x2="1121.75" y1="912.1719" y2="912.1719"/><rect fill="#FFFFFF" height="108.6875" style="stroke: #606060; stroke-width: 1.5;" width="230" x="668" y="842.5"/><text fill="#606060" font-family="Gill sans" font-size="18" lengthAdjust="spacingAndGlyphs" textLength="118" x="724" y="864.0234">InteractionState</text><line style="stroke: #606060; stroke-width: 1.5;" x1="669" x2="897" y1="873.1719" y2="873.1719"/><polygon fill="none" points="679,884.0078,683,888.0078,679,892.0078,675,888.0078" style="stroke: #B38D22; stroke-width: 1.0;"/><text fill="#606060" font-family="Gill sans" font-size="18" lengthAdjust="spacingAndGlyphs" textLength="95" x="689" y="893.6953">String msgID</text><line style="stroke: #606060; stroke-width: 1.5;" x1="669" x2="897" y1="901.8438" y2="901.8438"/><ellipse cx="679" cy="917.6797" fill="#84BE84" rx="3" ry="3" style="stroke: #038048; stroke-width: 1.0;"/><text fill="#606060" font-family="Gill sans" font-size="18" lengthAdjust="spacingAndGlyphs" textLength="130" x="689" y="922.3672">String getMsgID()</text><ellipse cx="679" cy="938.3516" fill="#84BE84" rx="3" ry="3" style="stroke: #038048; stroke-width: 1.0;"/><text fill="#606060" font-family="Gill sans" font-size="18" lengthAdjust="spacingAndGlyphs" textLength="203" x="689" y="943.0391">void setMsgID(String value)</text><rect fill="#FFFFFF" height="46.6719" style="stroke: #606060; stroke-width: 1.5;" width="110" x="1443" y="873.5"/><text fill="#606060" font-family="Gill sans" font-size="18" lengthAdjust="spacingAndGlyphs" textLength="104" x="1446" y="895.0234">SelectionState</text><line style="stroke: #606060; stroke-width: 1.5;" x1="1444" x2="1552" y1="904.1719" y2="904.1719"/><line style="stroke: #606060; stroke-width: 1.5;" x1="1444" x2="1552" y1="912.1719" y2="912.1719"/><rect fill="#FFFFFF" height="46.6719" style="stroke: #606060; stroke-width: 1.5;" width="119" x="457.75" y="1043.5"/><text fill="#606060" font-family="Gill sans" font-size="18" lengthAdjust="spacingAndGlyphs" textLength="113" x="460.75" y="1065.0234">SimpleJoinState</text><line style="stroke: #606060; stroke-width: 1.5;" x1="458.75" x2="575.75" y1="1074.1719" y2="1074.1719"/><line style="stroke: #606060; stroke-width: 1.5;" x1="458.75" x2="575.75" y1="1082.1719" y2="1082.1719"/><rect fill="#FFFFFF" height="46.6719" style="stroke: #606060; stroke-width: 1.5;" width="119" x="611.75" y="1043.5"/><text fill="#606060" font-family="Gill sans" font-size="18" lengthAdjust="spacingAndGlyphs" textLength="113" x="614.75" y="1065.0234">SubsetJoinState</text><line style="stroke: #606060; stroke-width: 1.5;" x1="612.75" x2="729.75" y1="1074.1719" y2="1074.1719"/><line style="stroke: #606060; stroke-width: 1.5;" x1="612.75" x2="729.75" y1="1082.1719" y2="1082.1719"/><rect fill="#FFFFFF" height="46.6719" style="stroke: #606060; stroke-width: 1.5;" width="91" x="331.75" y="1043.5"/><text fill="#606060" font-family="Gill sans" font-size="18" lengthAdjust="spacingAndGlyphs" textLength="85" x="334.75" y="1065.0234">AllJoinState</text><line style="stroke: #606060; stroke-width: 1.5;" x1="332.75" x2="421.75" y1="1074.1719" y2="1074.1719"/><line style="stroke: #606060; stroke-width: 1.5;" x1="332.75" x2="421.75" y1="1082.1719" y2="1082.1719"/><rect fill="#FFFFFF" height="46.6719" style="stroke: #606060; stroke-width: 1.5;" width="96" x="1506" y="1043.5"/><text fill="#606060" font-family="Gill sans" font-size="18" lengthAdjust="spacingAndGlyphs" textLength="90" x="1509" y="1065.0234">ChoiceState</text><line style="stroke: #606060; stroke-width: 1.5;" x1="1507" x2="1601" y1="1074.1719" y2="1074.1719"/><line style="stroke: #606060; stroke-width: 1.5;" x1="1507" x2="1601" y1="1082.1719" y2="1082.1719"/><rect fill="#FFFFFF" height="108.6875" style="stroke: #606060; stroke-width: 1.5;" width="237" x="765.75" y="1012.5"/><text fill="#606060" font-family="Gill sans" font-size="18" lengthAdjust="spacingAndGlyphs" textLength="129" x="819.75" y="1034.0234">SubsetSelectState</text><line style="stroke: #606060; stroke-width: 1.5;" x1="766.75" x2="1001.75" y1="1043.1719" y2="1043.1719"/><polygon fill="none" points="776.75,1054.0078,780.75,1058.0078,776.75,1062.0078,772.75,1058.0078" style="stroke: #B38D22; stroke-width: 1.0;"/><text fill="#606060" font-family="Gill sans" font-size="18" lengthAdjust="spacingAndGlyphs" textLength="97" x="786.75" y="1063.6953">String default</text><line style="stroke: #606060; stroke-width: 1.5;" x1="766.75" x2="1001.75" y1="1071.8438" y2="1071.8438"/><ellipse cx="776.75" cy="1087.6797" fill="#84BE84" rx="3" ry="3" style="stroke: #038048; stroke-width: 1.0;"/><text fill="#606060" font-family="Gill sans" font-size="18" lengthAdjust="spacingAndGlyphs" textLength="137" x="786.75" y="1092.3672">String getDefault()</text><ellipse cx="776.75" cy="1108.3516" fill="#84BE84" rx="3" ry="3" style="stroke: #038048; stroke-width: 1.0;"/><text fill="#606060" font-family="Gill sans" font-size="18" lengthAdjust="spacingAndGlyphs" textLength="210" x="786.75" y="1113.0391">void setDefault(String value)</text><rect fill="#FFFFFF" height="108.6875" style="stroke: #606060; stroke-width: 1.5;" width="290" x="1038" y="1012.5"/><text fill="#606060" font-family="Gill sans" font-size="18" lengthAdjust="spacingAndGlyphs" textLength="173" x="1096.5" y="1034.0234">DominatedChoiceState</text><line style="stroke: #606060; stroke-width: 1.5;" x1="1039" x2="1327" y1="1043.1719" y2="1043.1719"/><polygon fill="none" points="1049,1054.0078,1053,1058.0078,1049,1062.0078,1045,1058.0078" style="stroke: #B38D22; stroke-width: 1.0;"/><text fill="#606060" font-family="Gill sans" font-size="18" lengthAdjust="spacingAndGlyphs" textLength="150" x="1059" y="1063.6953">String dominantPeer</text><line style="stroke: #606060; stroke-width: 1.5;" x1="1039" x2="1327" y1="1071.8438" y2="1071.8438"/><ellipse cx="1049" cy="1087.6797" fill="#84BE84" rx="3" ry="3" style="stroke: #038048; stroke-width: 1.0;"/><text fill="#606060" font-family="Gill sans" font-size="18" lengthAdjust="spacingAndGlyphs" textLength="190" x="1059" y="1092.3672">String getDominantPeer()</text><ellipse cx="1049" cy="1108.3516" fill="#84BE84" rx="3" ry="3" style="stroke: #038048; stroke-width: 1.0;"/><text fill="#606060" font-family="Gill sans" font-size="18" lengthAdjust="spacingAndGlyphs" textLength="263" x="1059" y="1113.0391">void setDominantPeer(String value)</text><rect fill="#FFFFFF" height="46.6719" style="stroke: #606060; stroke-width: 1.5;" width="107" x="1363.75" y="1043.5"/><text fill="#606060" font-family="Gill sans" font-size="18" lengthAdjust="spacingAndGlyphs" textLength="101" x="1366.75" y="1065.0234">AllSelectState</text><line style="stroke: #606060; stroke-width: 1.5;" x1="1364.75" x2="1469.75" y1="1074.1719" y2="1074.1719"/><line style="stroke: #606060; stroke-width: 1.5;" x1="1364.75" x2="1469.75" y1="1082.1719" y2="1082.1719"/><path d="M174.229,1116.379 C177.083,1135.481 180.529,1158.537 184.082,1182.321 " fill="none" style="stroke: #606060; stroke-width: 1.0; stroke-dasharray: 7.0,7.0;"/><polygon fill="#606060" points="173.44,1111.099,170.8158,1120.5918,174.1799,1116.044,178.7278,1119.408,173.44,1111.099" style="stroke: #606060; stroke-width: 1.0;"/><path d="M394.218,943.844 C365.186,961.719 335.32,984.58 314,1012 C311.033,1015.815 281.999,1101.229 254.783,1182.425 " fill="none" style="stroke: #606060; stroke-width: 1.0; stroke-dasharray: 7.0,7.0;"/><polygon fill="#606060" points="398.495,941.243,388.7271,942.5033,394.2234,943.8417,392.885,949.3379,398.495,941.243" style="stroke: #606060; stroke-width: 1.0;"/><path d="M392.576,245.17 C226.38,318.47 39,443.2 39,633 C39,633 39,633 39,898 C39,997.913 23.4903,1028.236 58,1122 C65.5532,1142.522 75.7189,1162.848 87.2043,1182.285 " fill="none" style="stroke: #606060; stroke-width: 1.0; stroke-dasharray: 7.0,7.0;"/><polygon fill="#606060" points="397.487,243.02,387.6383,242.9669,392.9071,245.026,390.8479,250.2948,397.487,243.02" style="stroke: #606060; stroke-width: 1.0;"/><path d="M296.074,781.522 C277.885,801.723 260.164,821.405 244.691,838.59 " fill="none" style="stroke: #606060; stroke-width: 1.0; stroke-dasharray: 7.0,7.0;"/><polygon fill="#606060" points="241.219,842.446,250.2138,838.4343,244.5647,838.7303,244.2687,833.0812,241.219,842.446" style="stroke: #606060; stroke-width: 1.0;"/><path d="M463.383,786.391 C469.058,810.676 474.503,833.971 478.901,852.791 " fill="none" style="stroke: #606060; stroke-width: 1.0; stroke-dasharray: 7.0,7.0;"/><polygon fill="#606060" points="462.245,781.522,460.3989,791.1963,463.3833,786.3907,468.1889,789.3751,462.245,781.522" style="stroke: #606060; stroke-width: 1.0;"/><path d="M183.899,956.805 C180.529,978.583 176.773,1002.851 173.66,1022.968 " fill="none" style="stroke: #606060; stroke-width: 1.0; stroke-dasharray: 7.0,7.0;"/><polygon fill="#606060" points="184.702,951.618,179.3733,959.9008,183.9377,956.5592,187.2793,961.1236,184.702,951.618" style="stroke: #606060; stroke-width: 1.0;"/><path d="M628.486,255.55 C605.546,409.17 571.704,703.704 635,782 C715.011,880.973 801.643,784.14 915,842 C928.563,848.923 941.421,859.697 951.73,869.806 " fill="none" style="stroke: #606060; stroke-width: 1.0; stroke-dasharray: 7.0,7.0;"/><polygon fill="#606060" points="955.409,873.492,951.8828,864.296,951.877,869.9529,946.2202,869.9472,955.409,873.492" style="stroke: #606060; stroke-width: 1.0;"/><path d="M653.426,255.67 C664.317,365.04 681.593,538.526 688.255,605.43 " fill="none" style="stroke: #606060; stroke-width: 1.0; stroke-dasharray: 7.0,7.0;"/><polygon fill="#606060" points="688.753,610.439,691.8408,601.0867,688.2572,605.4636,683.8802,601.88,688.753,610.439" style="stroke: #606060; stroke-width: 1.0;"/><path d="M739.622,255.72 C759.187,275.1 779.209,294.93 796.965,312.51 " fill="none" style="stroke: #606060; stroke-width: 1.0; stroke-dasharray: 7.0,7.0;"/><polygon fill="#606060" points="800.953,316.47,797.3693,307.2963,797.399,312.9531,791.7422,312.9828,800.953,316.47" style="stroke: #606060; stroke-width: 1.0;"/><path d="M1229.16,755.487 C1240.8,785.871 1252.72,816.982 1262.38,842.182 " fill="none" style="stroke: #606060; stroke-width: 1.0; stroke-dasharray: 7.0,7.0;"/><polygon fill="#606060" points="1227.3,750.618,1226.7825,760.4533,1229.0878,755.2874,1234.2536,757.5928,1227.3,750.618" style="stroke: #606060; stroke-width: 1.0;"/><path d="M585.5,765.212 C593.053,770.955 600.579,776.577 608,782 C636.251,802.646 668.069,823.925 696.752,842.427 " fill="none" style="stroke: #606060; stroke-width: 1.0; stroke-dasharray: 7.0,7.0;"/><polygon fill="#606060" points="581.302,762.009,586.0316,770.6479,585.2774,765.0416,590.8837,764.2874,581.302,762.009" style="stroke: #606060; stroke-width: 1.0;"/><path d="M781.941,440.56 C769.218,454.77 756.909,470.24 747,486 C721.566,526.462 704.736,580.298 696.632,610.315 " fill="none" style="stroke: #606060; stroke-width: 1.0;"/><polygon fill="none" points="777.054,435.54,795.815,425.69,787.292,445.09,777.054,435.54" style="stroke: #606060; stroke-width: 1.0;"/><path d="M862.92,445.82 C867.901,492.26 874.158,550.577 878.351,589.668 " fill="none" style="stroke: #606060; stroke-width: 1.0;"/><polygon fill="none" points="855.941,446.4,860.768,425.76,869.861,444.9,855.941,446.4" style="stroke: #606060; stroke-width: 1.0;"/><path d="M994.292,382.41 C1097.22,395.13 1237.7,423.36 1346,486 C1390.39,511.675 1428.98,556.334 1453.78,589.709 " fill="none" style="stroke: #606060; stroke-width: 1.0;"/><polygon fill="none" points="993.28,389.34,974.227,380.07,994.903,375.44,993.28,389.34" style="stroke: #606060; stroke-width: 1.0;"/><path d="M929.192,694.098 C973.609,750.926 1038.43,833.854 1069.33,873.397 " fill="none" style="stroke: #606060; stroke-width: 1.0;"/><polygon fill="none" points="923.488,698.167,916.686,678.099,934.518,689.546,923.488,698.167" style="stroke: #606060; stroke-width: 1.0;"/><path d="M859.249,696.989 C842.288,741.258 819.702,800.209 803.521,842.44 " fill="none" style="stroke: #606060; stroke-width: 1.0;"/><polygon fill="none" points="852.795,694.27,866.487,678.099,865.868,699.279,852.795,694.27" style="stroke: #606060; stroke-width: 1.0;"/><path d="M927.622,693.884 C952.135,723.244 984.52,757.595 1019,782 C1043.25,799.161 1102,825.001 1157.93,847.743 " fill="none" style="stroke: #606060; stroke-width: 1.0;"/><polygon fill="none" points="922.04,698.115,914.851,678.182,932.901,689.281,922.04,698.115" style="stroke: #606060; stroke-width: 1.0;"/><path d="M904.871,697.048 C924.862,753.761 953.333,834.533 967.033,873.397 " fill="none" style="stroke: #606060; stroke-width: 1.0;"/><polygon fill="none" points="898.239,699.288,898.192,678.099,911.443,694.634,898.239,699.288" style="stroke: #606060; stroke-width: 1.0;"/><path d="M1056.68,935.331 C1049.6,941.898 1041.59,947.925 1033,952 C793.683,1065.579 683.499,907.689 440,1012 C423.58,1019.034 408.286,1031.923 396.88,1043.345 " fill="none" style="stroke: #606060; stroke-width: 1.0;"/><polygon fill="none" points="1051.75,930.36,1070.58,920.643,1061.92,939.982,1051.75,930.36" style="stroke: #606060; stroke-width: 1.0;"/><path d="M1478.31,938.841 C1462.45,971.724 1440.76,1016.723 1427.88,1043.434 " fill="none" style="stroke: #606060; stroke-width: 1.0;"/><polygon fill="none" points="1472.08,935.632,1487.08,920.657,1484.7,941.713,1472.08,935.632" style="stroke: #606060; stroke-width: 1.0;"/><path d="M1511.92,939.771 C1522.86,972.568 1537.66,1016.974 1546.48,1043.434 " fill="none" style="stroke: #606060; stroke-width: 1.0;"/><polygon fill="none" points="1505.24,941.845,1505.55,920.657,1518.52,937.417,1505.24,941.845" style="stroke: #606060; stroke-width: 1.0;"/><path d="M1486.63,698.165 C1489.89,754.817 1494.48,834.788 1496.7,873.397 " fill="none" style="stroke: #606060; stroke-width: 1.0;"/><polygon fill="none" points="1479.64,698.468,1485.48,678.099,1493.61,697.664,1479.64,698.468" style="stroke: #606060; stroke-width: 1.0;"/><path d="M1453.77,932.856 C1444.5,939.554 1434.61,946.261 1425,952 C1388.42,973.855 1346.98,994.688 1308.85,1012.424 " fill="none" style="stroke: #606060; stroke-width: 1.0;"/><polygon fill="none" points="1449.91,927.004,1470.12,920.637,1458.29,938.218,1449.91,927.004" style="stroke: #606060; stroke-width: 1.0;"/><path d="M1056.4,935.257 C1049.37,941.78 1041.45,947.809 1033,952 C856.599,1039.533 777.333,940.107 594,1012 C575.303,1019.332 556.797,1032.084 542.615,1043.356 " fill="none" style="stroke: #606060; stroke-width: 1.0;"/><polygon fill="none" points="1051.39,930.371,1070.25,920.712,1061.53,940.024,1051.39,930.371" style="stroke: #606060; stroke-width: 1.0;"/><path d="M1055.7,935.211 C1048.8,941.612 1041.11,947.606 1033,952 C919.183,1013.654 866.738,960.457 748,1012 C729.877,1019.867 711.684,1032.361 697.536,1043.351 " fill="none" style="stroke: #606060; stroke-width: 1.0;"/><polygon fill="none" points="1050.88,930.125,1069.79,920.564,1060.97,939.831,1050.88,930.125" style="stroke: #606060; stroke-width: 1.0;"/><path d="M1457.99,932.98 C1447.81,940.314 1436.48,947.255 1425,952 C1256.84,1021.515 1195.73,964.777 1020,1012 C1014.23,1013.549 1008.38,1015.269 1002.506,1017.115 " fill="none" style="stroke: #606060; stroke-width: 1.0;"/><polygon fill="none" points="1453.8,927.372,1473.87,920.583,1462.41,938.408,1453.8,927.372" style="stroke: #606060; stroke-width: 1.0;"/></g></svg>