<?xml version="1.0" encoding="UTF-8" standalone="yes"?><svg xmlns="http://www.w3.org/2000/svg" xmlns:xlink="http://www.w3.org/1999/xlink" height="1195pt" style="width:1449px;height:1195px;" version="1.1" viewBox="0 0 1449 1195" width="1449pt"><defs><filter height="300%" id="f1" width="300%" x="-1" y="-1"><feGaussianBlur result="blurOut" stdDeviation="2.0"/><feColorMatrix in="blurOut" result="blurOut2" type="matrix" values="0 0 0 0 0 0 0 0 0 0 0 0 0 0 0 0 0 0 .4 0"/><feOffset dx="4.0" dy="4.0" in="blurOut2" result="blurOut3"/><feBlend in="SourceGraphic" in2="blurOut3" mode="normal"/></filter></defs><g><polygon fill="#FFFFFF" filter="url(#f1)" points="22,24,220,24,227,46.4883,1442,46.4883,1442,1188,22,1188,22,24" style="stroke: #000000; stroke-width: 2.0;"/><line style="stroke: #000000; stroke-width: 2.0;" x1="22" x2="227" y1="46.4883" y2="46.4883"/><text fill="#000000" font-family="sans-serif" font-size="14" font-weight="bold" lengthAdjust="spacingAndGlyphs" textLength="192" x="25" y="40.5352">choreography.cif.generated</text><rect fill="#FEFECE" filter="url(#f1)" height="164.5957" style="stroke: #A80036; stroke-width: 1.5;" width="216" x="940" y="427.5"/><ellipse cx="1026.25" cy="443.5" fill="#ADD1B2" rx="11" ry="11" style="stroke: #A80036; stroke-width: 1.0;"/><path d="M1029.2231,449.1431 Q1028.6421,449.4419 1028.0029,449.5913 Q1027.3638,449.7407 1026.6582,449.7407 Q1024.1514,449.7407 1022.8315,448.0889 Q1021.5117,446.437 1021.5117,443.3159 Q1021.5117,440.1865 1022.8315,438.5347 Q1024.1514,436.8828 1026.6582,436.8828 Q1027.3638,436.8828 1028.0112,437.0322 Q1028.6587,437.1816 1029.2231,437.4805 L1029.2231,440.2031 Q1028.5923,439.6221 1027.9988,439.3523 Q1027.4053,439.0825 1026.7744,439.0825 Q1025.4297,439.0825 1024.7449,440.1492 Q1024.0601,441.2158 1024.0601,443.3159 Q1024.0601,445.4077 1024.7449,446.4744 Q1025.4297,447.541 1026.7744,447.541 Q1027.4053,447.541 1027.9988,447.2712 Q1028.5923,447.0015 1029.2231,446.4204 Z "/><text fill="#000000" font-family="sans-serif" font-size="12" lengthAdjust="spacingAndGlyphs" textLength="35" x="1046.75" y="448.0352">Action</text><line style="stroke: #A80036; stroke-width: 1.5;" x1="941" x2="1155" y1="459.5" y2="459.5"/><polygon fill="none" points="951,466.4775,955,470.4775,951,474.4775,947,470.4775" style="stroke: #B38D22; stroke-width: 1.0;"/><text fill="#000000" font-family="sans-serif" font-size="11" lengthAdjust="spacingAndGlyphs" textLength="79" x="960" y="474.1348">String actionID</text><polygon fill="none" points="951,479.4326,955,483.4326,951,487.4326,947,483.4326" style="stroke: #B38D22; stroke-width: 1.0;"/><text fill="#000000" font-family="sans-serif" font-size="11" lengthAdjust="spacingAndGlyphs" textLength="63" x="960" y="487.0898">String actor</text><polygon fill="none" points="951,492.3877,955,496.3877,951,500.3877,947,496.3877" style="stroke: #B38D22; stroke-width: 1.0;"/><text fill="#000000" font-family="sans-serif" font-size="11" lengthAdjust="spacingAndGlyphs" textLength="111" x="960" y="500.0449">String actionContent</text><line style="stroke: #A80036; stroke-width: 1.5;" x1="941" x2="1155" y1="506.3652" y2="506.3652"/><ellipse cx="951" cy="518.3428" fill="#84BE84" rx="3" ry="3" style="stroke: #038048; stroke-width: 1.0;"/><text fill="#000000" font-family="sans-serif" font-size="11" lengthAdjust="spacingAndGlyphs" textLength="106" x="960" y="521">String getActionID()</text><ellipse cx="951" cy="531.2979" fill="#84BE84" rx="3" ry="3" style="stroke: #038048; stroke-width: 1.0;"/><text fill="#000000" font-family="sans-serif" font-size="11" lengthAdjust="spacingAndGlyphs" textLength="90" x="960" y="533.9551">String getActor()</text><ellipse cx="951" cy="544.2529" fill="#84BE84" rx="3" ry="3" style="stroke: #038048; stroke-width: 1.0;"/><text fill="#000000" font-family="sans-serif" font-size="11" lengthAdjust="spacingAndGlyphs" textLength="138" x="960" y="546.9102">String getActionContent()</text><ellipse cx="951" cy="557.208" fill="#84BE84" rx="3" ry="3" style="stroke: #038048; stroke-width: 1.0;"/><text fill="#000000" font-family="sans-serif" font-size="11" lengthAdjust="spacingAndGlyphs" textLength="162" x="960" y="559.8652">void setActionID (String value)</text><ellipse cx="951" cy="570.1631" fill="#84BE84" rx="3" ry="3" style="stroke: #038048; stroke-width: 1.0;"/><text fill="#000000" font-family="sans-serif" font-size="11" lengthAdjust="spacingAndGlyphs" textLength="146" x="960" y="572.8203">void setActor (String value)</text><ellipse cx="951" cy="583.1182" fill="#84BE84" rx="3" ry="3" style="stroke: #038048; stroke-width: 1.0;"/><text fill="#000000" font-family="sans-serif" font-size="11" lengthAdjust="spacingAndGlyphs" textLength="190" x="960" y="585.7754">void setActionContent (String value</text><rect fill="#FEFECE" filter="url(#f1)" height="203.4609" style="stroke: #A80036; stroke-width: 1.5;" width="247" x="38.75" y="968.5"/><ellipse cx="117.5" cy="984.5" fill="#ADD1B2" rx="11" ry="11" style="stroke: #A80036; stroke-width: 1.0;"/><path d="M120.4731,990.1431 Q119.8921,990.4419 119.2529,990.5913 Q118.6138,990.7407 117.9082,990.7407 Q115.4014,990.7407 114.0815,989.0889 Q112.7617,987.437 112.7617,984.3159 Q112.7617,981.1865 114.0815,979.5347 Q115.4014,977.8828 117.9082,977.8828 Q118.6138,977.8828 119.2612,978.0322 Q119.9087,978.1816 120.4731,978.4805 L120.4731,981.2031 Q119.8423,980.6221 119.2488,980.3523 Q118.6553,980.0825 118.0244,980.0825 Q116.6797,980.0825 115.9949,981.1492 Q115.3101,982.2158 115.3101,984.3159 Q115.3101,986.4077 115.9949,987.4744 Q116.6797,988.541 118.0244,988.541 Q118.6553,988.541 119.2488,988.2712 Q119.8423,988.0015 120.4731,987.4204 Z "/><text fill="#000000" font-family="sans-serif" font-size="12" lengthAdjust="spacingAndGlyphs" textLength="81" x="138" y="989.0352">Choreography</text><line style="stroke: #A80036; stroke-width: 1.5;" x1="39.75" x2="284.75" y1="1000.5" y2="1000.5"/><polygon fill="none" points="49.75,1007.4775,53.75,1011.4775,49.75,1015.4775,45.75,1011.4775" style="stroke: #B38D22; stroke-width: 1.0;"/><text fill="#000000" font-family="sans-serif" font-size="11" lengthAdjust="spacingAndGlyphs" textLength="84" x="58.75" y="1015.1348">String choreoID</text><polygon fill="none" points="49.75,1020.4326,53.75,1024.4326,49.75,1028.4326,45.75,1024.4326" style="stroke: #B38D22; stroke-width: 1.0;"/><text fill="#000000" font-family="sans-serif" font-size="11" lengthAdjust="spacingAndGlyphs" textLength="109" x="58.75" y="1028.0898">PeerList participants</text><polygon fill="none" points="49.75,1033.3877,53.75,1037.3877,49.75,1041.3877,45.75,1037.3877" style="stroke: #B38D22; stroke-width: 1.0;"/><text fill="#000000" font-family="sans-serif" font-size="11" lengthAdjust="spacingAndGlyphs" textLength="114" x="58.75" y="1041.0449">MessageList alphabet</text><polygon fill="none" points="49.75,1046.3428,53.75,1050.3428,49.75,1054.3428,45.75,1050.3428" style="stroke: #B38D22; stroke-width: 1.0;"/><text fill="#000000" font-family="sans-serif" font-size="11" lengthAdjust="spacingAndGlyphs" textLength="143" x="58.75" y="1054">StateMachine stateMachine</text><line style="stroke: #A80036; stroke-width: 1.5;" x1="39.75" x2="284.75" y1="1060.3203" y2="1060.3203"/><ellipse cx="49.75" cy="1072.2979" fill="#84BE84" rx="3" ry="3" style="stroke: #038048; stroke-width: 1.0;"/><text fill="#000000" font-family="sans-serif" font-size="11" lengthAdjust="spacingAndGlyphs" textLength="111" x="58.75" y="1074.9551">String getChoreoID()</text><ellipse cx="49.75" cy="1085.2529" fill="#84BE84" rx="3" ry="3" style="stroke: #038048; stroke-width: 1.0;"/><text fill="#000000" font-family="sans-serif" font-size="11" lengthAdjust="spacingAndGlyphs" textLength="133" x="58.75" y="1087.9102">PeerList getParticipants()</text><ellipse cx="49.75" cy="1098.208" fill="#84BE84" rx="3" ry="3" style="stroke: #038048; stroke-width: 1.0;"/><text fill="#000000" font-family="sans-serif" font-size="11" lengthAdjust="spacingAndGlyphs" textLength="141" x="58.75" y="1100.8652">MessageList getAlphabet()</text><ellipse cx="49.75" cy="1111.1631" fill="#84BE84" rx="3" ry="3" style="stroke: #038048; stroke-width: 1.0;"/><text fill="#000000" font-family="sans-serif" font-size="11" lengthAdjust="spacingAndGlyphs" textLength="168" x="58.75" y="1113.8203">StateMachine getStateMachine()</text><ellipse cx="49.75" cy="1124.1182" fill="#84BE84" rx="3" ry="3" style="stroke: #038048; stroke-width: 1.0;"/><text fill="#000000" font-family="sans-serif" font-size="11" lengthAdjust="spacingAndGlyphs" textLength="164" x="58.75" y="1126.7754">void setChoreoID(String value)</text><ellipse cx="49.75" cy="1137.0732" fill="#84BE84" rx="3" ry="3" style="stroke: #038048; stroke-width: 1.0;"/><text fill="#000000" font-family="sans-serif" font-size="11" lengthAdjust="spacingAndGlyphs" textLength="186" x="58.75" y="1139.7305">void setParticipants(PeerList value)</text><ellipse cx="49.75" cy="1150.0283" fill="#84BE84" rx="3" ry="3" style="stroke: #038048; stroke-width: 1.0;"/><text fill="#000000" font-family="sans-serif" font-size="11" lengthAdjust="spacingAndGlyphs" textLength="194" x="58.75" y="1152.6855">void setAlphabet(MessageList value)</text><ellipse cx="49.75" cy="1162.9834" fill="#84BE84" rx="3" ry="3" style="stroke: #038048; stroke-width: 1.0;"/><text fill="#000000" font-family="sans-serif" font-size="11" lengthAdjust="spacingAndGlyphs" textLength="221" x="58.75" y="1165.6406">void setStateMachine(StateMachine value)</text><rect fill="#FEFECE" filter="url(#f1)" height="73.9102" style="stroke: #A80036; stroke-width: 1.5;" width="137" x="75.75" y="827"/><ellipse cx="117.75" cy="843" fill="#ADD1B2" rx="11" ry="11" style="stroke: #A80036; stroke-width: 1.0;"/><path d="M120.7231,848.6431 Q120.1421,848.9419 119.5029,849.0913 Q118.8638,849.2407 118.1582,849.2407 Q115.6514,849.2407 114.3315,847.5889 Q113.0117,845.937 113.0117,842.8159 Q113.0117,839.6865 114.3315,838.0347 Q115.6514,836.3828 118.1582,836.3828 Q118.8638,836.3828 119.5112,836.5322 Q120.1587,836.6816 120.7231,836.9805 L120.7231,839.7031 Q120.0923,839.1221 119.4988,838.8523 Q118.9053,838.5825 118.2744,838.5825 Q116.9297,838.5825 116.2449,839.6492 Q115.5601,840.7158 115.5601,842.8159 Q115.5601,844.9077 116.2449,845.9744 Q116.9297,847.041 118.2744,847.041 Q118.9053,847.041 119.4988,846.7712 Q120.0923,846.5015 120.7231,845.9204 Z "/><text fill="#000000" font-family="sans-serif" font-size="12" lengthAdjust="spacingAndGlyphs" textLength="45" x="137.75" y="847.5352">PeerList</text><line style="stroke: #A80036; stroke-width: 1.5;" x1="76.75" x2="211.75" y1="859" y2="859"/><polygon fill="none" points="86.75,865.9775,90.75,869.9775,86.75,873.9775,82.75,869.9775" style="stroke: #B38D22; stroke-width: 1.0;"/><text fill="#000000" font-family="sans-serif" font-size="11" lengthAdjust="spacingAndGlyphs" textLength="87" x="95.75" y="873.6348">List&lt;Peer&gt; peer</text><line style="stroke: #A80036; stroke-width: 1.5;" x1="76.75" x2="211.75" y1="879.9551" y2="879.9551"/><ellipse cx="86.75" cy="891.9326" fill="#84BE84" rx="3" ry="3" style="stroke: #038048; stroke-width: 1.0;"/><text fill="#000000" font-family="sans-serif" font-size="11" lengthAdjust="spacingAndGlyphs" textLength="111" x="95.75" y="894.5898">List&lt;Peer&gt; getPeer()</text><rect fill="#FEFECE" filter="url(#f1)" height="73.9102" style="stroke: #A80036; stroke-width: 1.5;" width="213" x="283.75" y="679"/><ellipse cx="351.5" cy="695" fill="#ADD1B2" rx="11" ry="11" style="stroke: #A80036; stroke-width: 1.0;"/><path d="M354.4731,700.6431 Q353.8921,700.9419 353.2529,701.0913 Q352.6138,701.2407 351.9082,701.2407 Q349.4014,701.2407 348.0815,699.5889 Q346.7617,697.937 346.7617,694.8159 Q346.7617,691.6865 348.0815,690.0347 Q349.4014,688.3828 351.9082,688.3828 Q352.6138,688.3828 353.2612,688.5322 Q353.9087,688.6816 354.4731,688.9805 L354.4731,691.7031 Q353.8423,691.1221 353.2488,690.8523 Q352.6553,690.5825 352.0244,690.5825 Q350.6797,690.5825 349.9949,691.6492 Q349.3101,692.7158 349.3101,694.8159 Q349.3101,696.9077 349.9949,697.9744 Q350.6797,699.041 352.0244,699.041 Q352.6553,699.041 353.2488,698.7712 Q353.8423,698.5015 354.4731,697.9204 Z "/><text fill="#000000" font-family="sans-serif" font-size="12" lengthAdjust="spacingAndGlyphs" textLength="69" x="372" y="699.5352">MessageList</text><line style="stroke: #A80036; stroke-width: 1.5;" x1="284.75" x2="495.75" y1="711" y2="711"/><polygon fill="none" points="294.75,717.9775,298.75,721.9775,294.75,725.9775,290.75,721.9775" style="stroke: #B38D22; stroke-width: 1.0;"/><text fill="#000000" font-family="sans-serif" font-size="11" lengthAdjust="spacingAndGlyphs" textLength="171" x="303.75" y="725.6348">List&lt;Object&gt; messageOrAction</text><ellipse cx="294.75" cy="735.9326" fill="none" rx="3" ry="3" style="stroke: #038048; stroke-width: 1.0;"/><text fill="#000000" font-family="sans-serif" font-size="11" lengthAdjust="spacingAndGlyphs" textLength="187" x="303.75" y="738.5898">List&lt;Object&gt; getMessageOrAction</text><line style="stroke: #A80036; stroke-width: 1.5;" x1="284.75" x2="495.75" y1="744.9102" y2="744.9102"/><rect fill="#FEFECE" filter="url(#f1)" height="138.6855" style="stroke: #A80036; stroke-width: 1.5;" width="359" x="413.75" y="60.5"/><ellipse cx="551.5" cy="76.5" fill="#ADD1B2" rx="11" ry="11" style="stroke: #A80036; stroke-width: 1.0;"/><path d="M554.4731,82.1431 Q553.8921,82.4419 553.2529,82.5913 Q552.6138,82.7407 551.9082,82.7407 Q549.4014,82.7407 548.0815,81.0889 Q546.7617,79.437 546.7617,76.3159 Q546.7617,73.1865 548.0815,71.5347 Q549.4014,69.8828 551.9082,69.8828 Q552.6138,69.8828 553.2612,70.0322 Q553.9087,70.1816 554.4731,70.4805 L554.4731,73.2031 Q553.8423,72.6221 553.2488,72.3523 Q552.6553,72.0825 552.0244,72.0825 Q550.6797,72.0825 549.9949,73.1492 Q549.3101,74.2158 549.3101,76.3159 Q549.3101,78.4077 549.9949,79.4744 Q550.6797,80.541 552.0244,80.541 Q552.6553,80.541 553.2488,80.2712 Q553.8423,80.0015 554.4731,79.4204 Z "/><text fill="#000000" font-family="sans-serif" font-size="12" lengthAdjust="spacingAndGlyphs" textLength="75" x="572" y="81.0352">StateMachine</text><line style="stroke: #A80036; stroke-width: 1.5;" x1="414.75" x2="771.75" y1="92.5" y2="92.5"/><polygon fill="none" points="424.75,99.4775,428.75,103.4775,424.75,107.4775,420.75,103.4775" style="stroke: #B38D22; stroke-width: 1.0;"/><text fill="#000000" font-family="sans-serif" font-size="11" lengthAdjust="spacingAndGlyphs" textLength="87" x="433.75" y="107.1348">InitialState initial</text><polygon fill="none" points="424.75,112.4326,428.75,116.4326,424.75,120.4326,420.75,116.4326" style="stroke: #B38D22; stroke-width: 1.0;"/><text fill="#000000" font-family="sans-serif" font-size="11" lengthAdjust="spacingAndGlyphs" textLength="308" x="433.75" y="120.0898">List&lt;BaseState&gt; interactionOrInternalActionOrSubsetJoin</text><polygon fill="none" points="424.75,125.3877,428.75,129.3877,424.75,133.3877,420.75,129.3877" style="stroke: #B38D22; stroke-width: 1.0;"/><text fill="#000000" font-family="sans-serif" font-size="11" lengthAdjust="spacingAndGlyphs" textLength="114" x="433.75" y="133.0449">List&lt;FinalState&gt; final</text><line style="stroke: #A80036; stroke-width: 1.5;" x1="414.75" x2="771.75" y1="139.3652" y2="139.3652"/><ellipse cx="424.75" cy="151.3428" fill="#84BE84" rx="3" ry="3" style="stroke: #038048; stroke-width: 1.0;"/><text fill="#000000" font-family="sans-serif" font-size="11" lengthAdjust="spacingAndGlyphs" textLength="112" x="433.75" y="154">InitialState getInitial()</text><ellipse cx="424.75" cy="164.2979" fill="#84BE84" rx="3" ry="3" style="stroke: #038048; stroke-width: 1.0;"/><text fill="#000000" font-family="sans-serif" font-size="11" lengthAdjust="spacingAndGlyphs" textLength="333" x="433.75" y="166.9551">List&lt;BaseState&gt; getInteractionOrInternalActionOrSubsetJoin()</text><ellipse cx="424.75" cy="177.2529" fill="#84BE84" rx="3" ry="3" style="stroke: #038048; stroke-width: 1.0;"/><text fill="#000000" font-family="sans-serif" font-size="11" lengthAdjust="spacingAndGlyphs" textLength="141" x="433.75" y="179.9102">List&lt;FinalState&gt; getFinal()</text><ellipse cx="424.75" cy="190.208" fill="#84BE84" rx="3" ry="3" style="stroke: #038048; stroke-width: 1.0;"/><text fill="#000000" font-family="sans-serif" font-size="11" lengthAdjust="spacingAndGlyphs" textLength="165" x="433.75" y="192.8652">void setInitial(InitialState value)</text><rect fill="#FEFECE" filter="url(#f1)" height="203.4609" style="stroke: #A80036; stroke-width: 1.5;" width="228" x="276" y="408.5"/><ellipse cx="360.75" cy="424.5" fill="#ADD1B2" rx="11" ry="11" style="stroke: #A80036; stroke-width: 1.0;"/><path d="M363.7231,430.1431 Q363.1421,430.4419 362.5029,430.5913 Q361.8638,430.7407 361.1582,430.7407 Q358.6514,430.7407 357.3315,429.0889 Q356.0117,427.437 356.0117,424.3159 Q356.0117,421.1865 357.3315,419.5347 Q358.6514,417.8828 361.1582,417.8828 Q361.8638,417.8828 362.5112,418.0322 Q363.1587,418.1816 363.7231,418.4805 L363.7231,421.2031 Q363.0923,420.6221 362.4988,420.3523 Q361.9053,420.0825 361.2744,420.0825 Q359.9297,420.0825 359.2449,421.1492 Q358.5601,422.2158 358.5601,424.3159 Q358.5601,426.4077 359.2449,427.4744 Q359.9297,428.541 361.2744,428.541 Q361.9053,428.541 362.4988,428.2712 Q363.0923,428.0015 363.7231,427.4204 Z "/><text fill="#000000" font-family="sans-serif" font-size="12" lengthAdjust="spacingAndGlyphs" textLength="50" x="381.25" y="429.0352">Message</text><line style="stroke: #A80036; stroke-width: 1.5;" x1="277" x2="503" y1="440.5" y2="440.5"/><polygon fill="none" points="287,447.4775,291,451.4775,287,455.4775,283,451.4775" style="stroke: #B38D22; stroke-width: 1.0;"/><text fill="#000000" font-family="sans-serif" font-size="11" lengthAdjust="spacingAndGlyphs" textLength="69" x="296" y="455.1348">String msgID</text><polygon fill="none" points="287,460.4326,291,464.4326,287,468.4326,283,464.4326" style="stroke: #B38D22; stroke-width: 1.0;"/><text fill="#000000" font-family="sans-serif" font-size="11" lengthAdjust="spacingAndGlyphs" textLength="72" x="296" y="468.0898">String sender</text><polygon fill="none" points="287,473.3877,291,477.3877,287,481.3877,283,477.3877" style="stroke: #B38D22; stroke-width: 1.0;"/><text fill="#000000" font-family="sans-serif" font-size="11" lengthAdjust="spacingAndGlyphs" textLength="78" x="296" y="481.0449">String receiver</text><polygon fill="none" points="287,486.3428,291,490.3428,287,494.3428,283,490.3428" style="stroke: #B38D22; stroke-width: 1.0;"/><text fill="#000000" font-family="sans-serif" font-size="11" lengthAdjust="spacingAndGlyphs" textLength="125" x="296" y="494">String messageContent</text><line style="stroke: #A80036; stroke-width: 1.5;" x1="277" x2="503" y1="500.3203" y2="500.3203"/><ellipse cx="287" cy="512.2979" fill="#84BE84" rx="3" ry="3" style="stroke: #038048; stroke-width: 1.0;"/><text fill="#000000" font-family="sans-serif" font-size="11" lengthAdjust="spacingAndGlyphs" textLength="93" x="296" y="514.9551">String getMsgID()</text><ellipse cx="287" cy="525.2529" fill="#84BE84" rx="3" ry="3" style="stroke: #038048; stroke-width: 1.0;"/><text fill="#000000" font-family="sans-serif" font-size="11" lengthAdjust="spacingAndGlyphs" textLength="97" x="296" y="527.9102">String getSender()</text><ellipse cx="287" cy="538.208" fill="#84BE84" rx="3" ry="3" style="stroke: #038048; stroke-width: 1.0;"/><text fill="#000000" font-family="sans-serif" font-size="11" lengthAdjust="spacingAndGlyphs" textLength="105" x="296" y="540.8652">String getReceiver()</text><ellipse cx="287" cy="551.1631" fill="#84BE84" rx="3" ry="3" style="stroke: #038048; stroke-width: 1.0;"/><text fill="#000000" font-family="sans-serif" font-size="11" lengthAdjust="spacingAndGlyphs" textLength="149" x="296" y="553.8203">String getMessageContent()</text><ellipse cx="287" cy="564.1182" fill="#84BE84" rx="3" ry="3" style="stroke: #038048; stroke-width: 1.0;"/><text fill="#000000" font-family="sans-serif" font-size="11" lengthAdjust="spacingAndGlyphs" textLength="146" x="296" y="566.7754">void setMsgID(String value)</text><ellipse cx="287" cy="577.0732" fill="#84BE84" rx="3" ry="3" style="stroke: #038048; stroke-width: 1.0;"/><text fill="#000000" font-family="sans-serif" font-size="11" lengthAdjust="spacingAndGlyphs" textLength="150" x="296" y="579.7305">void setSender(String value)</text><ellipse cx="287" cy="590.0283" fill="#84BE84" rx="3" ry="3" style="stroke: #038048; stroke-width: 1.0;"/><text fill="#000000" font-family="sans-serif" font-size="11" lengthAdjust="spacingAndGlyphs" textLength="158" x="296" y="592.6855">void setReceiver(String value)</text><ellipse cx="287" cy="602.9834" fill="#84BE84" rx="3" ry="3" style="stroke: #038048; stroke-width: 1.0;"/><text fill="#000000" font-family="sans-serif" font-size="11" lengthAdjust="spacingAndGlyphs" textLength="202" x="296" y="605.6406">void setMessageContent(String value)</text><rect fill="#FEFECE" filter="url(#f1)" height="86.8652" style="stroke: #A80036; stroke-width: 1.5;" width="173" x="75.75" y="672.5"/><ellipse cx="145" cy="688.5" fill="#ADD1B2" rx="11" ry="11" style="stroke: #A80036; stroke-width: 1.0;"/><path d="M147.9731,694.1431 Q147.3921,694.4419 146.7529,694.5913 Q146.1138,694.7407 145.4082,694.7407 Q142.9014,694.7407 141.5815,693.0889 Q140.2617,691.437 140.2617,688.3159 Q140.2617,685.1865 141.5815,683.5347 Q142.9014,681.8828 145.4082,681.8828 Q146.1138,681.8828 146.7612,682.0322 Q147.4087,682.1816 147.9731,682.4805 L147.9731,685.2031 Q147.3423,684.6221 146.7488,684.3523 Q146.1553,684.0825 145.5244,684.0825 Q144.1797,684.0825 143.4949,685.1492 Q142.8101,686.2158 142.8101,688.3159 Q142.8101,690.4077 143.4949,691.4744 Q144.1797,692.541 145.5244,692.541 Q146.1553,692.541 146.7488,692.2712 Q147.3423,692.0015 147.9731,691.4204 Z "/><text fill="#000000" font-family="sans-serif" font-size="12" lengthAdjust="spacingAndGlyphs" textLength="26" x="165.5" y="693.0352">Peer</text><line style="stroke: #A80036; stroke-width: 1.5;" x1="76.75" x2="247.75" y1="704.5" y2="704.5"/><polygon fill="none" points="86.75,711.4775,90.75,715.4775,86.75,719.4775,82.75,715.4775" style="stroke: #B38D22; stroke-width: 1.0;"/><text fill="#000000" font-family="sans-serif" font-size="11" lengthAdjust="spacingAndGlyphs" textLength="70" x="95.75" y="719.1348">String peerID</text><line style="stroke: #A80036; stroke-width: 1.5;" x1="76.75" x2="247.75" y1="725.4551" y2="725.4551"/><ellipse cx="86.75" cy="737.4326" fill="#84BE84" rx="3" ry="3" style="stroke: #038048; stroke-width: 1.0;"/><text fill="#000000" font-family="sans-serif" font-size="11" lengthAdjust="spacingAndGlyphs" textLength="94" x="95.75" y="740.0898">String getPeerID()</text><ellipse cx="86.75" cy="750.3877" fill="#84BE84" rx="3" ry="3" style="stroke: #038048; stroke-width: 1.0;"/><text fill="#000000" font-family="sans-serif" font-size="11" lengthAdjust="spacingAndGlyphs" textLength="147" x="95.75" y="753.0449">void setPeerID(String value)</text><rect fill="#FEFECE" filter="url(#f1)" height="48" style="stroke: #A80036; stroke-width: 1.5;" width="90" x="739" y="692"/><ellipse cx="754" cy="708" fill="#ADD1B2" rx="11" ry="11" style="stroke: #A80036; stroke-width: 1.0;"/><path d="M756.9731,713.6431 Q756.3921,713.9419 755.7529,714.0913 Q755.1138,714.2407 754.4082,714.2407 Q751.9014,714.2407 750.5815,712.5889 Q749.2617,710.937 749.2617,707.8159 Q749.2617,704.6865 750.5815,703.0347 Q751.9014,701.3828 754.4082,701.3828 Q755.1138,701.3828 755.7612,701.5322 Q756.4087,701.6816 756.9731,701.9805 L756.9731,704.7031 Q756.3423,704.1221 755.7488,703.8523 Q755.1553,703.5825 754.5244,703.5825 Q753.1797,703.5825 752.4949,704.6492 Q751.8101,705.7158 751.8101,707.8159 Q751.8101,709.9077 752.4949,710.9744 Q753.1797,712.041 754.5244,712.041 Q755.1553,712.041 755.7488,711.7712 Q756.3423,711.5015 756.9731,710.9204 Z "/><text fill="#000000" font-family="sans-serif" font-size="12" lengthAdjust="spacingAndGlyphs" textLength="58" x="768" y="712.5352">InitialState</text><line style="stroke: #A80036; stroke-width: 1.5;" x1="740" x2="828" y1="724" y2="724"/><line style="stroke: #A80036; stroke-width: 1.5;" x1="740" x2="828" y1="732" y2="732"/><rect fill="#FEFECE" filter="url(#f1)" height="48" style="stroke: #A80036; stroke-width: 1.5;" width="86" x="600" y="486"/><ellipse cx="615" cy="502" fill="#ADD1B2" rx="11" ry="11" style="stroke: #A80036; stroke-width: 1.0;"/><path d="M617.9731,507.6431 Q617.3921,507.9419 616.7529,508.0913 Q616.1138,508.2407 615.4082,508.2407 Q612.9014,508.2407 611.5815,506.5889 Q610.2617,504.937 610.2617,501.8159 Q610.2617,498.6865 611.5815,497.0347 Q612.9014,495.3828 615.4082,495.3828 Q616.1138,495.3828 616.7612,495.5322 Q617.4087,495.6816 617.9731,495.9805 L617.9731,498.7031 Q617.3423,498.1221 616.7488,497.8523 Q616.1553,497.5825 615.5244,497.5825 Q614.1797,497.5825 613.4949,498.6492 Q612.8101,499.7158 612.8101,501.8159 Q612.8101,503.9077 613.4949,504.9744 Q614.1797,506.041 615.5244,506.041 Q616.1553,506.041 616.7488,505.7712 Q617.3423,505.5015 617.9731,504.9204 Z "/><text fill="#000000" font-family="sans-serif" font-size="12" lengthAdjust="spacingAndGlyphs" textLength="54" x="629" y="506.5352">FinalState</text><line style="stroke: #A80036; stroke-width: 1.5;" x1="601" x2="685" y1="518" y2="518"/><line style="stroke: #A80036; stroke-width: 1.5;" x1="601" x2="685" y1="526" y2="526"/><rect fill="#FEFECE" filter="url(#f1)" height="86.8652" style="stroke: #A80036; stroke-width: 1.5;" width="176" x="691" y="260.5"/><ellipse cx="747.25" cy="276.5" fill="#ADD1B2" rx="11" ry="11" style="stroke: #A80036; stroke-width: 1.0;"/><path d="M750.2231,282.1431 Q749.6421,282.4419 749.0029,282.5913 Q748.3638,282.7407 747.6582,282.7407 Q745.1514,282.7407 743.8315,281.0889 Q742.5117,279.437 742.5117,276.3159 Q742.5117,273.1865 743.8315,271.5347 Q745.1514,269.8828 747.6582,269.8828 Q748.3638,269.8828 749.0112,270.0322 Q749.6587,270.1816 750.2231,270.4805 L750.2231,273.2031 Q749.5923,272.6221 748.9988,272.3523 Q748.4053,272.0825 747.7744,272.0825 Q746.4297,272.0825 745.7449,273.1492 Q745.0601,274.2158 745.0601,276.3159 Q745.0601,278.4077 745.7449,279.4744 Q746.4297,280.541 747.7744,280.541 Q748.4053,280.541 748.9988,280.2712 Q749.5923,280.0015 750.2231,279.4204 Z "/><text fill="#000000" font-family="sans-serif" font-size="12" lengthAdjust="spacingAndGlyphs" textLength="55" x="767.75" y="281.0352">BaseState</text><line style="stroke: #A80036; stroke-width: 1.5;" x1="692" x2="866" y1="292.5" y2="292.5"/><polygon fill="none" points="702,299.4775,706,303.4775,702,307.4775,698,303.4775" style="stroke: #B38D22; stroke-width: 1.0;"/><text fill="#000000" font-family="sans-serif" font-size="11" lengthAdjust="spacingAndGlyphs" textLength="72" x="711" y="307.1348">String stateID</text><line style="stroke: #A80036; stroke-width: 1.5;" x1="692" x2="866" y1="313.4551" y2="313.4551"/><ellipse cx="702" cy="325.4326" fill="#84BE84" rx="3" ry="3" style="stroke: #038048; stroke-width: 1.0;"/><text fill="#000000" font-family="sans-serif" font-size="11" lengthAdjust="spacingAndGlyphs" textLength="97" x="711" y="328.0898">String getStateID()</text><ellipse cx="702" cy="338.3877" fill="#84BE84" rx="3" ry="3" style="stroke: #038048; stroke-width: 1.0;"/><text fill="#000000" font-family="sans-serif" font-size="11" lengthAdjust="spacingAndGlyphs" textLength="150" x="711" y="341.0449">void setStateID(String value)</text><rect fill="#FEFECE" filter="url(#f1)" height="73.9102" style="stroke: #A80036; stroke-width: 1.5;" width="184" x="721" y="473"/><ellipse cx="770.75" cy="489" fill="#ADD1B2" rx="11" ry="11" style="stroke: #A80036; stroke-width: 1.0;"/><path d="M773.7231,494.6431 Q773.1421,494.9419 772.5029,495.0913 Q771.8638,495.2407 771.1582,495.2407 Q768.6514,495.2407 767.3315,493.5889 Q766.0117,491.937 766.0117,488.8159 Q766.0117,485.6865 767.3315,484.0347 Q768.6514,482.3828 771.1582,482.3828 Q771.8638,482.3828 772.5112,482.5322 Q773.1587,482.6816 773.7231,482.9805 L773.7231,485.7031 Q773.0923,485.1221 772.4988,484.8523 Q771.9053,484.5825 771.2744,484.5825 Q769.9297,484.5825 769.2449,485.6492 Q768.5601,486.7158 768.5601,488.8159 Q768.5601,490.9077 769.2449,491.9744 Q769.9297,493.041 771.2744,493.041 Q771.9053,493.041 772.4988,492.7712 Q773.0923,492.5015 773.7231,491.9204 Z "/><text fill="#000000" font-family="sans-serif" font-size="12" lengthAdjust="spacingAndGlyphs" textLength="76" x="791.25" y="493.5352">OneSuccState</text><line style="stroke: #A80036; stroke-width: 1.5;" x1="722" x2="904" y1="505" y2="505"/><polygon fill="none" points="732,511.9775,736,515.9775,732,519.9775,728,515.9775" style="stroke: #B38D22; stroke-width: 1.0;"/><text fill="#000000" font-family="sans-serif" font-size="11" lengthAdjust="spacingAndGlyphs" textLength="118" x="741" y="519.6348">List String successors</text><line style="stroke: #A80036; stroke-width: 1.5;" x1="722" x2="904" y1="525.9551" y2="525.9551"/><ellipse cx="732" cy="537.9326" fill="#84BE84" rx="3" ry="3" style="stroke: #038048; stroke-width: 1.0;"/><text fill="#000000" font-family="sans-serif" font-size="11" lengthAdjust="spacingAndGlyphs" textLength="158" x="741" y="540.5898">List&lt;String&gt; getSuccessors()</text><rect fill="#FEFECE" filter="url(#f1)" height="73.9102" style="stroke: #A80036; stroke-width: 1.5;" width="184" x="1191" y="473"/><ellipse cx="1232.1" cy="489" fill="#ADD1B2" rx="11" ry="11" style="stroke: #A80036; stroke-width: 1.0;"/><path d="M1235.0731,494.6431 Q1234.4921,494.9419 1233.8529,495.0913 Q1233.2138,495.2407 1232.5082,495.2407 Q1230.0014,495.2407 1228.6815,493.5889 Q1227.3617,491.937 1227.3617,488.8159 Q1227.3617,485.6865 1228.6815,484.0347 Q1230.0014,482.3828 1232.5082,482.3828 Q1233.2138,482.3828 1233.8612,482.5322 Q1234.5087,482.6816 1235.0731,482.9805 L1235.0731,485.7031 Q1234.4423,485.1221 1233.8488,484.8523 Q1233.2553,484.5825 1232.6244,484.5825 Q1231.2797,484.5825 1230.5949,485.6492 Q1229.9101,486.7158 1229.9101,488.8159 Q1229.9101,490.9077 1230.5949,491.9744 Q1231.2797,493.041 1232.6244,493.041 Q1233.2553,493.041 1233.8488,492.7712 Q1234.4423,492.5015 1235.0731,491.9204 Z "/><text fill="#000000" font-family="sans-serif" font-size="12" lengthAdjust="spacingAndGlyphs" textLength="94" x="1251.9" y="493.5352">SeveralSuccState</text><line style="stroke: #A80036; stroke-width: 1.5;" x1="1192" x2="1374" y1="505" y2="505"/><polygon fill="none" points="1202,511.9775,1206,515.9775,1202,519.9775,1198,515.9775" style="stroke: #B38D22; stroke-width: 1.0;"/><text fill="#000000" font-family="sans-serif" font-size="11" lengthAdjust="spacingAndGlyphs" textLength="118" x="1211" y="519.6348">List String successors</text><line style="stroke: #A80036; stroke-width: 1.5;" x1="1192" x2="1374" y1="525.9551" y2="525.9551"/><ellipse cx="1202" cy="537.9326" fill="#84BE84" rx="3" ry="3" style="stroke: #038048; stroke-width: 1.0;"/><text fill="#000000" font-family="sans-serif" font-size="11" lengthAdjust="spacingAndGlyphs" textLength="158" x="1211" y="540.5898">List&lt;String&gt; getSuccessors()</text><rect fill="#FEFECE" filter="url(#f1)" height="86.8652" style="stroke: #A80036; stroke-width: 1.5;" width="185" x="980.75" y="672.5"/><ellipse cx="1016.9" cy="688.5" fill="#ADD1B2" rx="11" ry="11" style="stroke: #A80036; stroke-width: 1.0;"/><path d="M1019.8731,694.1431 Q1019.2921,694.4419 1018.6529,694.5913 Q1018.0138,694.7407 1017.3082,694.7407 Q1014.8014,694.7407 1013.4815,693.0889 Q1012.1617,691.437 1012.1617,688.3159 Q1012.1617,685.1865 1013.4815,683.5347 Q1014.8014,681.8828 1017.3082,681.8828 Q1018.0138,681.8828 1018.6612,682.0322 Q1019.3087,682.1816 1019.8731,682.4805 L1019.8731,685.2031 Q1019.2423,684.6221 1018.6488,684.3523 Q1018.0553,684.0825 1017.4244,684.0825 Q1016.0797,684.0825 1015.3949,685.1492 Q1014.7101,686.2158 1014.7101,688.3159 Q1014.7101,690.4077 1015.3949,691.4744 Q1016.0797,692.541 1017.4244,692.541 Q1018.0553,692.541 1018.6488,692.2712 Q1019.2423,692.0015 1019.8731,691.4204 Z "/><text fill="#000000" font-family="sans-serif" font-size="12" lengthAdjust="spacingAndGlyphs" textLength="106" x="1035.6" y="693.0352">InternalActionState</text><line style="stroke: #A80036; stroke-width: 1.5;" x1="981.75" x2="1164.75" y1="704.5" y2="704.5"/><polygon fill="none" points="991.75,711.4775,995.75,715.4775,991.75,719.4775,987.75,715.4775" style="stroke: #B38D22; stroke-width: 1.0;"/><text fill="#000000" font-family="sans-serif" font-size="11" lengthAdjust="spacingAndGlyphs" textLength="79" x="1000.75" y="719.1348">String actionID</text><line style="stroke: #A80036; stroke-width: 1.5;" x1="981.75" x2="1164.75" y1="725.4551" y2="725.4551"/><ellipse cx="991.75" cy="737.4326" fill="#84BE84" rx="3" ry="3" style="stroke: #038048; stroke-width: 1.0;"/><text fill="#000000" font-family="sans-serif" font-size="11" lengthAdjust="spacingAndGlyphs" textLength="106" x="1000.75" y="740.0898">String getActionID()</text><ellipse cx="991.75" cy="750.3877" fill="#84BE84" rx="3" ry="3" style="stroke: #038048; stroke-width: 1.0;"/><text fill="#000000" font-family="sans-serif" font-size="11" lengthAdjust="spacingAndGlyphs" textLength="159" x="1000.75" y="753.0449">void setActionID(String value)</text><rect fill="#FEFECE" filter="url(#f1)" height="48" style="stroke: #A80036; stroke-width: 1.5;" width="81" x="864.75" y="692"/><ellipse cx="879.75" cy="708" fill="#ADD1B2" rx="11" ry="11" style="stroke: #A80036; stroke-width: 1.0;"/><path d="M882.7231,713.6431 Q882.1421,713.9419 881.5029,714.0913 Q880.8638,714.2407 880.1582,714.2407 Q877.6514,714.2407 876.3315,712.5889 Q875.0117,710.937 875.0117,707.8159 Q875.0117,704.6865 876.3315,703.0347 Q877.6514,701.3828 880.1582,701.3828 Q880.8638,701.3828 881.5112,701.5322 Q882.1587,701.6816 882.7231,701.9805 L882.7231,704.7031 Q882.0923,704.1221 881.4988,703.8523 Q880.9053,703.5825 880.2744,703.5825 Q878.9297,703.5825 878.2449,704.6492 Q877.5601,705.7158 877.5601,707.8159 Q877.5601,709.9077 878.2449,710.9744 Q878.9297,712.041 880.2744,712.041 Q880.9053,712.041 881.4988,711.7712 Q882.0923,711.5015 882.7231,710.9204 Z "/><text fill="#000000" font-family="sans-serif" font-size="12" lengthAdjust="spacingAndGlyphs" textLength="49" x="893.75" y="712.5352">JoinState</text><line style="stroke: #A80036; stroke-width: 1.5;" x1="865.75" x2="944.75" y1="724" y2="724"/><line style="stroke: #A80036; stroke-width: 1.5;" x1="865.75" x2="944.75" y1="732" y2="732"/><rect fill="#FEFECE" filter="url(#f1)" height="86.8652" style="stroke: #A80036; stroke-width: 1.5;" width="172" x="532" y="672.5"/><ellipse cx="570.4" cy="688.5" fill="#ADD1B2" rx="11" ry="11" style="stroke: #A80036; stroke-width: 1.0;"/><path d="M573.3731,694.1431 Q572.7921,694.4419 572.1529,694.5913 Q571.5138,694.7407 570.8082,694.7407 Q568.3014,694.7407 566.9815,693.0889 Q565.6617,691.437 565.6617,688.3159 Q565.6617,685.1865 566.9815,683.5347 Q568.3014,681.8828 570.8082,681.8828 Q571.5138,681.8828 572.1612,682.0322 Q572.8087,682.1816 573.3731,682.4805 L573.3731,685.2031 Q572.7423,684.6221 572.1488,684.3523 Q571.5553,684.0825 570.9244,684.0825 Q569.5797,684.0825 568.8949,685.1492 Q568.2101,686.2158 568.2101,688.3159 Q568.2101,690.4077 568.8949,691.4744 Q569.5797,692.541 570.9244,692.541 Q571.5553,692.541 572.1488,692.2712 Q572.7423,692.0015 573.3731,691.4204 Z "/><text fill="#000000" font-family="sans-serif" font-size="12" lengthAdjust="spacingAndGlyphs" textLength="88" x="589.6" y="693.0352">InteractionState</text><line style="stroke: #A80036; stroke-width: 1.5;" x1="533" x2="703" y1="704.5" y2="704.5"/><polygon fill="none" points="543,711.4775,547,715.4775,543,719.4775,539,715.4775" style="stroke: #B38D22; stroke-width: 1.0;"/><text fill="#000000" font-family="sans-serif" font-size="11" lengthAdjust="spacingAndGlyphs" textLength="69" x="552" y="719.1348">String msgID</text><line style="stroke: #A80036; stroke-width: 1.5;" x1="533" x2="703" y1="725.4551" y2="725.4551"/><ellipse cx="543" cy="737.4326" fill="#84BE84" rx="3" ry="3" style="stroke: #038048; stroke-width: 1.0;"/><text fill="#000000" font-family="sans-serif" font-size="11" lengthAdjust="spacingAndGlyphs" textLength="93" x="552" y="740.0898">String getMsgID()</text><ellipse cx="543" cy="750.3877" fill="#84BE84" rx="3" ry="3" style="stroke: #038048; stroke-width: 1.0;"/><text fill="#000000" font-family="sans-serif" font-size="11" lengthAdjust="spacingAndGlyphs" textLength="146" x="552" y="753.0449">void setMsgID(String value)</text><rect fill="#FEFECE" filter="url(#f1)" height="48" style="stroke: #A80036; stroke-width: 1.5;" width="110" x="1201" y="692"/><ellipse cx="1216" cy="708" fill="#ADD1B2" rx="11" ry="11" style="stroke: #A80036; stroke-width: 1.0;"/><path d="M1218.9731,713.6431 Q1218.3921,713.9419 1217.7529,714.0913 Q1217.1138,714.2407 1216.4082,714.2407 Q1213.9014,714.2407 1212.5815,712.5889 Q1211.2617,710.937 1211.2617,707.8159 Q1211.2617,704.6865 1212.5815,703.0347 Q1213.9014,701.3828 1216.4082,701.3828 Q1217.1138,701.3828 1217.7612,701.5322 Q1218.4087,701.6816 1218.9731,701.9805 L1218.9731,704.7031 Q1218.3423,704.1221 1217.7488,703.8523 Q1217.1553,703.5825 1216.5244,703.5825 Q1215.1797,703.5825 1214.4949,704.6492 Q1213.8101,705.7158 1213.8101,707.8159 Q1213.8101,709.9077 1214.4949,710.9744 Q1215.1797,712.041 1216.5244,712.041 Q1217.1553,712.041 1217.7488,711.7712 Q1218.3423,711.5015 1218.9731,710.9204 Z "/><text fill="#000000" font-family="sans-serif" font-size="12" lengthAdjust="spacingAndGlyphs" textLength="78" x="1230" y="712.5352">SelectionState</text><line style="stroke: #A80036; stroke-width: 1.5;" x1="1202" x2="1310" y1="724" y2="724"/><line style="stroke: #A80036; stroke-width: 1.5;" x1="1202" x2="1310" y1="732" y2="732"/><rect fill="#FEFECE" filter="url(#f1)" height="48" style="stroke: #A80036; stroke-width: 1.5;" width="119" x="415.75" y="840"/><ellipse cx="430.75" cy="856" fill="#ADD1B2" rx="11" ry="11" style="stroke: #A80036; stroke-width: 1.0;"/><path d="M433.7231,861.6431 Q433.1421,861.9419 432.5029,862.0913 Q431.8638,862.2407 431.1582,862.2407 Q428.6514,862.2407 427.3315,860.5889 Q426.0117,858.937 426.0117,855.8159 Q426.0117,852.6865 427.3315,851.0347 Q428.6514,849.3828 431.1582,849.3828 Q431.8638,849.3828 432.5112,849.5322 Q433.1587,849.6816 433.7231,849.9805 L433.7231,852.7031 Q433.0923,852.1221 432.4988,851.8523 Q431.9053,851.5825 431.2744,851.5825 Q429.9297,851.5825 429.2449,852.6492 Q428.5601,853.7158 428.5601,855.8159 Q428.5601,857.9077 429.2449,858.9744 Q429.9297,860.041 431.2744,860.041 Q431.9053,860.041 432.4988,859.7712 Q433.0923,859.5015 433.7231,858.9204 Z "/><text fill="#000000" font-family="sans-serif" font-size="12" lengthAdjust="spacingAndGlyphs" textLength="87" x="444.75" y="860.5352">SimpleJoinState</text><line style="stroke: #A80036; stroke-width: 1.5;" x1="416.75" x2="533.75" y1="872" y2="872"/><line style="stroke: #A80036; stroke-width: 1.5;" x1="416.75" x2="533.75" y1="880" y2="880"/><rect fill="#FEFECE" filter="url(#f1)" height="48" style="stroke: #A80036; stroke-width: 1.5;" width="119" x="569.75" y="840"/><ellipse cx="584.75" cy="856" fill="#ADD1B2" rx="11" ry="11" style="stroke: #A80036; stroke-width: 1.0;"/><path d="M587.7231,861.6431 Q587.1421,861.9419 586.5029,862.0913 Q585.8638,862.2407 585.1582,862.2407 Q582.6514,862.2407 581.3315,860.5889 Q580.0117,858.937 580.0117,855.8159 Q580.0117,852.6865 581.3315,851.0347 Q582.6514,849.3828 585.1582,849.3828 Q585.8638,849.3828 586.5112,849.5322 Q587.1587,849.6816 587.7231,849.9805 L587.7231,852.7031 Q587.0923,852.1221 586.4988,851.8523 Q585.9053,851.5825 585.2744,851.5825 Q583.9297,851.5825 583.2449,852.6492 Q582.5601,853.7158 582.5601,855.8159 Q582.5601,857.9077 583.2449,858.9744 Q583.9297,860.041 585.2744,860.041 Q585.9053,860.041 586.4988,859.7712 Q587.0923,859.5015 587.7231,858.9204 Z "/><text fill="#000000" font-family="sans-serif" font-size="12" lengthAdjust="spacingAndGlyphs" textLength="87" x="598.75" y="860.5352">SubsetJoinState</text><line style="stroke: #A80036; stroke-width: 1.5;" x1="570.75" x2="687.75" y1="872" y2="872"/><line style="stroke: #A80036; stroke-width: 1.5;" x1="570.75" x2="687.75" y1="880" y2="880"/><rect fill="#FEFECE" filter="url(#f1)" height="48" style="stroke: #A80036; stroke-width: 1.5;" width="95" x="285.75" y="840"/><ellipse cx="300.75" cy="856" fill="#ADD1B2" rx="11" ry="11" style="stroke: #A80036; stroke-width: 1.0;"/><path d="M303.7231,861.6431 Q303.1421,861.9419 302.5029,862.0913 Q301.8638,862.2407 301.1582,862.2407 Q298.6514,862.2407 297.3315,860.5889 Q296.0117,858.937 296.0117,855.8159 Q296.0117,852.6865 297.3315,851.0347 Q298.6514,849.3828 301.1582,849.3828 Q301.8638,849.3828 302.5112,849.5322 Q303.1587,849.6816 303.7231,849.9805 L303.7231,852.7031 Q303.0923,852.1221 302.4988,851.8523 Q301.9053,851.5825 301.2744,851.5825 Q299.9297,851.5825 299.2449,852.6492 Q298.5601,853.7158 298.5601,855.8159 Q298.5601,857.9077 299.2449,858.9744 Q299.9297,860.041 301.2744,860.041 Q301.9053,860.041 302.4988,859.7712 Q303.0923,859.5015 303.7231,858.9204 Z "/><text fill="#000000" font-family="sans-serif" font-size="12" lengthAdjust="spacingAndGlyphs" textLength="63" x="314.75" y="860.5352">AllJoinState</text><line style="stroke: #A80036; stroke-width: 1.5;" x1="286.75" x2="379.75" y1="872" y2="872"/><line style="stroke: #A80036; stroke-width: 1.5;" x1="286.75" x2="379.75" y1="880" y2="880"/><rect fill="#FEFECE" filter="url(#f1)" height="48" style="stroke: #A80036; stroke-width: 1.5;" width="98" x="1328" y="840"/><ellipse cx="1343" cy="856" fill="#ADD1B2" rx="11" ry="11" style="stroke: #A80036; stroke-width: 1.0;"/><path d="M1345.9731,861.6431 Q1345.3921,861.9419 1344.7529,862.0913 Q1344.1138,862.2407 1343.4082,862.2407 Q1340.9014,862.2407 1339.5815,860.5889 Q1338.2617,858.937 1338.2617,855.8159 Q1338.2617,852.6865 1339.5815,851.0347 Q1340.9014,849.3828 1343.4082,849.3828 Q1344.1138,849.3828 1344.7612,849.5322 Q1345.4087,849.6816 1345.9731,849.9805 L1345.9731,852.7031 Q1345.3423,852.1221 1344.7488,851.8523 Q1344.1553,851.5825 1343.5244,851.5825 Q1342.1797,851.5825 1341.4949,852.6492 Q1340.8101,853.7158 1340.8101,855.8159 Q1340.8101,857.9077 1341.4949,858.9744 Q1342.1797,860.041 1343.5244,860.041 Q1344.1553,860.041 1344.7488,859.7712 Q1345.3423,859.5015 1345.9731,858.9204 Z "/><text fill="#000000" font-family="sans-serif" font-size="12" lengthAdjust="spacingAndGlyphs" textLength="66" x="1357" y="860.5352">ChoiceState</text><line style="stroke: #A80036; stroke-width: 1.5;" x1="1329" x2="1425" y1="872" y2="872"/><line style="stroke: #A80036; stroke-width: 1.5;" x1="1329" x2="1425" y1="880" y2="880"/><rect fill="#FEFECE" filter="url(#f1)" height="86.8652" style="stroke: #A80036; stroke-width: 1.5;" width="177" x="723.75" y="820.5"/><ellipse cx="759.45" cy="836.5" fill="#ADD1B2" rx="11" ry="11" style="stroke: #A80036; stroke-width: 1.0;"/><path d="M762.4231,842.1431 Q761.8421,842.4419 761.2029,842.5913 Q760.5638,842.7407 759.8582,842.7407 Q757.3514,842.7407 756.0315,841.0889 Q754.7117,839.437 754.7117,836.3159 Q754.7117,833.1865 756.0315,831.5347 Q757.3514,829.8828 759.8582,829.8828 Q760.5638,829.8828 761.2112,830.0322 Q761.8587,830.1816 762.4231,830.4805 L762.4231,833.2031 Q761.7923,832.6221 761.1988,832.3523 Q760.6053,832.0825 759.9744,832.0825 Q758.6297,832.0825 757.9449,833.1492 Q757.2601,834.2158 757.2601,836.3159 Q757.2601,838.4077 757.9449,839.4744 Q758.6297,840.541 759.9744,840.541 Q760.6053,840.541 761.1988,840.2712 Q761.7923,840.0015 762.4231,839.4204 Z "/><text fill="#000000" font-family="sans-serif" font-size="12" lengthAdjust="spacingAndGlyphs" textLength="99" x="778.05" y="841.0352">SubsetSelectState</text><line style="stroke: #A80036; stroke-width: 1.5;" x1="724.75" x2="899.75" y1="852.5" y2="852.5"/><polygon fill="none" points="734.75,859.4775,738.75,863.4775,734.75,867.4775,730.75,863.4775" style="stroke: #B38D22; stroke-width: 1.0;"/><text fill="#000000" font-family="sans-serif" font-size="11" lengthAdjust="spacingAndGlyphs" textLength="72" x="743.75" y="867.1348">String default</text><line style="stroke: #A80036; stroke-width: 1.5;" x1="724.75" x2="899.75" y1="873.4551" y2="873.4551"/><ellipse cx="734.75" cy="885.4326" fill="#84BE84" rx="3" ry="3" style="stroke: #038048; stroke-width: 1.0;"/><text fill="#000000" font-family="sans-serif" font-size="11" lengthAdjust="spacingAndGlyphs" textLength="98" x="743.75" y="888.0898">String getDefault()</text><ellipse cx="734.75" cy="898.3877" fill="#84BE84" rx="3" ry="3" style="stroke: #038048; stroke-width: 1.0;"/><text fill="#000000" font-family="sans-serif" font-size="11" lengthAdjust="spacingAndGlyphs" textLength="151" x="743.75" y="901.0449">void setDefault(String value)</text><rect fill="#FEFECE" filter="url(#f1)" height="86.8652" style="stroke: #A80036; stroke-width: 1.5;" width="214" x="936" y="820.5"/><ellipse cx="974.85" cy="836.5" fill="#ADD1B2" rx="11" ry="11" style="stroke: #A80036; stroke-width: 1.0;"/><path d="M977.8231,842.1431 Q977.2421,842.4419 976.6029,842.5913 Q975.9638,842.7407 975.2582,842.7407 Q972.7514,842.7407 971.4315,841.0889 Q970.1117,839.437 970.1117,836.3159 Q970.1117,833.1865 971.4315,831.5347 Q972.7514,829.8828 975.2582,829.8828 Q975.9638,829.8828 976.6112,830.0322 Q977.2587,830.1816 977.8231,830.4805 L977.8231,833.2031 Q977.1923,832.6221 976.5988,832.3523 Q976.0053,832.0825 975.3744,832.0825 Q974.0297,832.0825 973.3449,833.1492 Q972.6601,834.2158 972.6601,836.3159 Q972.6601,838.4077 973.3449,839.4744 Q974.0297,840.541 975.3744,840.541 Q976.0053,840.541 976.5988,840.2712 Q977.1923,840.0015 977.8231,839.4204 Z "/><text fill="#000000" font-family="sans-serif" font-size="12" lengthAdjust="spacingAndGlyphs" textLength="129" x="994.15" y="841.0352">DominatedChoiceState</text><line style="stroke: #A80036; stroke-width: 1.5;" x1="937" x2="1149" y1="852.5" y2="852.5"/><polygon fill="none" points="947,859.4775,951,863.4775,947,867.4775,943,863.4775" style="stroke: #B38D22; stroke-width: 1.0;"/><text fill="#000000" font-family="sans-serif" font-size="11" lengthAdjust="spacingAndGlyphs" textLength="109" x="956" y="867.1348">String dominantPeer</text><line style="stroke: #A80036; stroke-width: 1.5;" x1="937" x2="1149" y1="873.4551" y2="873.4551"/><ellipse cx="947" cy="885.4326" fill="#84BE84" rx="3" ry="3" style="stroke: #038048; stroke-width: 1.0;"/><text fill="#000000" font-family="sans-serif" font-size="11" lengthAdjust="spacingAndGlyphs" textLength="135" x="956" y="888.0898">String getDominantPeer()</text><ellipse cx="947" cy="898.3877" fill="#84BE84" rx="3" ry="3" style="stroke: #038048; stroke-width: 1.0;"/><text fill="#000000" font-family="sans-serif" font-size="11" lengthAdjust="spacingAndGlyphs" textLength="188" x="956" y="901.0449">void setDominantPeer(String value)</text><rect fill="#FEFECE" filter="url(#f1)" height="48" style="stroke: #A80036; stroke-width: 1.5;" width="107" x="1185.75" y="840"/><ellipse cx="1200.75" cy="856" fill="#ADD1B2" rx="11" ry="11" style="stroke: #A80036; stroke-width: 1.0;"/><path d="M1203.7231,861.6431 Q1203.1421,861.9419 1202.5029,862.0913 Q1201.8638,862.2407 1201.1582,862.2407 Q1198.6514,862.2407 1197.3315,860.5889 Q1196.0117,858.937 1196.0117,855.8159 Q1196.0117,852.6865 1197.3315,851.0347 Q1198.6514,849.3828 1201.1582,849.3828 Q1201.8638,849.3828 1202.5112,849.5322 Q1203.1587,849.6816 1203.7231,849.9805 L1203.7231,852.7031 Q1203.0923,852.1221 1202.4988,851.8523 Q1201.9053,851.5825 1201.2744,851.5825 Q1199.9297,851.5825 1199.2449,852.6492 Q1198.5601,853.7158 1198.5601,855.8159 Q1198.5601,857.9077 1199.2449,858.9744 Q1199.9297,860.041 1201.2744,860.041 Q1201.9053,860.041 1202.4988,859.7712 Q1203.0923,859.5015 1203.7231,858.9204 Z "/><text fill="#000000" font-family="sans-serif" font-size="12" lengthAdjust="spacingAndGlyphs" textLength="75" x="1214.75" y="860.5352">AllSelectState</text><line style="stroke: #A80036; stroke-width: 1.5;" x1="1186.75" x2="1291.75" y1="872" y2="872"/><line style="stroke: #A80036; stroke-width: 1.5;" x1="1186.75" x2="1291.75" y1="880" y2="880"/><path d="M147.657,906.445 C149.241,924.403 151.172,946.288 153.098,968.105 " fill="none" style="stroke: #A80036; stroke-width: 1.0; stroke-dasharray: 7.0,7.0;"/><polygon fill="#A80036" points="147.177,901.002,143.9846,910.3191,147.6171,905.9826,151.9536,909.615,147.177,901.002" style="stroke: #A80036; stroke-width: 1.0;"/><path d="M332.521,756.426 C310.181,773.908 285.749,795.964 268,820 C265.506,823.378 232.723,900.677 204.268,968.259 " fill="none" style="stroke: #A80036; stroke-width: 1.0; stroke-dasharray: 7.0,7.0;"/><polygon fill="#A80036" points="336.666,753.216,327.1012,755.5644,332.7129,756.2776,331.9998,761.8893,336.666,753.216" style="stroke: #A80036; stroke-width: 1.0;"/><path d="M408.283,174.93 C247.158,225.542 39,326.287 39,509 C39,509 39,509 39,717 C39,802.308 29.8454,827.472 58,908 C65.1933,928.574 75.514,949.16 86.8907,968.405 " fill="none" style="stroke: #A80036; stroke-width: 1.0; stroke-dasharray: 7.0,7.0;"/><polygon fill="#A80036" points="413.515,173.3,403.7321,172.1619,408.7419,174.7891,406.1147,179.7989,413.515,173.3" style="stroke: #A80036; stroke-width: 1.0;"/><path d="M277.67,611.506 C255.224,631.589 232.692,651.749 213.555,668.872 " fill="none" style="stroke: #A80036; stroke-width: 1.0; stroke-dasharray: 7.0,7.0;"/><polygon fill="#A80036" points="209.774,672.255,219.148,669.2338,213.4998,668.9206,213.813,663.2724,209.774,672.255" style="stroke: #A80036; stroke-width: 1.0;"/><path d="M390,616.597 C390,639.027 390,661.225 390,678.845 " fill="none" style="stroke: #A80036; stroke-width: 1.0; stroke-dasharray: 7.0,7.0;"/><polygon fill="#A80036" points="390,611.506,386,620.506,390,616.506,394,620.506,390,611.506" style="stroke: #A80036; stroke-width: 1.0;"/><path d="M156.119,764.705 C153.62,784.97 150.756,808.202 148.44,826.991 " fill="none" style="stroke: #A80036; stroke-width: 1.0; stroke-dasharray: 7.0,7.0;"/><polygon fill="#A80036" points="156.745,759.622,151.6742,768.0652,156.1334,764.5845,159.6142,769.0437,156.745,759.622" style="stroke: #A80036; stroke-width: 1.0;"/><path d="M568.826,199.79 C538.392,299.61 499.396,486.373 582,612 C618.968,668.222 662.053,639.552 721,672 C730.172,677.049 739.688,683.081 748.46,689.006 " fill="none" style="stroke: #A80036; stroke-width: 1.0; stroke-dasharray: 7.0,7.0;"/><polygon fill="#A80036" points="752.702,691.902,747.5263,683.5227,748.5732,689.0819,743.0141,690.1288,752.702,691.902" style="stroke: #A80036; stroke-width: 1.0;"/><path d="M602.113,199.89 C613.214,283.815 631.45,421.686 639.26,480.729 " fill="none" style="stroke: #A80036; stroke-width: 1.0; stroke-dasharray: 7.0,7.0;"/><polygon fill="#A80036" points="639.939,485.856,642.7242,476.4092,639.2833,480.8992,634.7933,477.4583,639.939,485.856" style="stroke: #A80036; stroke-width: 1.0;"/><path d="M667.314,199.72 C688.089,218.932 710.162,239.343 729.151,256.903 " fill="none" style="stroke: #A80036; stroke-width: 1.0; stroke-dasharray: 7.0,7.0;"/><polygon fill="#A80036" points="732.906,260.376,729.0129,251.3292,729.2346,256.9818,723.5821,257.2035,732.906,260.376" style="stroke: #A80036; stroke-width: 1.0;"/><path d="M1058.62,597.647 C1061.78,623.451 1065.11,650.596 1067.76,672.273 " fill="none" style="stroke: #A80036; stroke-width: 1.0; stroke-dasharray: 7.0,7.0;"/><polygon fill="#A80036" points="1057.99,592.506,1055.1138,601.9255,1058.5978,597.4689,1063.0545,600.953,1057.99,592.506" style="stroke: #A80036; stroke-width: 1.0;"/><path d="M506.258,615.021 C528.889,635.269 551.402,655.412 570.226,672.255 " fill="none" style="stroke: #A80036; stroke-width: 1.0; stroke-dasharray: 7.0,7.0;"/><polygon fill="#A80036" points="502.33,611.506,506.369,620.4886,506.0558,614.8404,511.704,614.5272,502.33,611.506" style="stroke: #A80036; stroke-width: 1.0;"/><path d="M734.048,363.81 C723.578,378.079 712.671,393.427 703,408 C685.746,434.001 667.684,464.999 655.944,485.734 " fill="none" style="stroke: #A80036; stroke-width: 1.0;"/><polygon fill="none" points="728.493,359.549,746.038,347.667,739.733,367.897,728.493,359.549" style="stroke: #A80036; stroke-width: 1.0;"/><path d="M789.436,367.617 C795.182,402.093 802.11,443.66 806.961,472.769 " fill="none" style="stroke: #A80036; stroke-width: 1.0;"/><polygon fill="none" points="782.511,368.644,786.128,347.765,796.32,366.342,782.511,368.644" style="stroke: #A80036; stroke-width: 1.0;"/><path d="M887.2,318.783 C969.453,332.604 1083.35,359.114 1173,408 C1203.27,424.508 1231.78,451.125 1252.19,472.89 " fill="none" style="stroke: #A80036; stroke-width: 1.0;"/><polygon fill="none" points="885.902,325.664,867.267,315.577,888.125,311.842,885.902,325.664" style="stroke: #A80036; stroke-width: 1.0;"/><path d="M837.545,565.427 C856.129,606.634 880.733,661.191 894.506,691.731 " fill="none" style="stroke: #A80036; stroke-width: 1.0;"/><polygon fill="none" points="831.077,568.111,829.236,547.002,843.839,562.355,831.077,568.111" style="stroke: #A80036; stroke-width: 1.0;"/><path d="M764.414,561.829 C731.9,595.843 689.591,640.105 658.821,672.295 " fill="none" style="stroke: #A80036; stroke-width: 1.0;"/><polygon fill="none" points="759.707,556.622,778.587,547.002,769.827,566.296,759.707,556.622" style="stroke: #A80036; stroke-width: 1.0;"/><path d="M863.747,560.948 C881.646,577.767 902.241,596.25 922,612 C948.552,633.164 979.287,654.631 1006.07,672.449 " fill="none" style="stroke: #A80036; stroke-width: 1.0;"/><polygon fill="none" points="858.766,565.872,849.113,547.009,868.422,555.735,858.766,565.872" style="stroke: #A80036; stroke-width: 1.0;"/><path d="M805.063,566.83 C799.23,607.865 791.6,661.536 787.308,691.731 " fill="none" style="stroke: #A80036; stroke-width: 1.0;"/><polygon fill="none" points="798.137,565.817,807.882,547.002,811.998,567.788,798.137,565.817" style="stroke: #A80036; stroke-width: 1.0;"/><path d="M862.512,751.616 C857.17,754.85 851.606,757.751 846,760 C659.551,834.788 586.097,749.46 398,820 C385.331,824.751 372.642,832.352 361.881,839.851 " fill="none" style="stroke: #A80036; stroke-width: 1.0;"/><polygon fill="none" points="858.642,745.782,879.08,740.186,866.593,757.305,858.642,745.782" style="stroke: #A80036; stroke-width: 1.0;"/><path d="M1250.96,760.266 C1247.92,786.395 1244.16,818.653 1241.68,839.974 " fill="none" style="stroke: #A80036; stroke-width: 1.0;"/><polygon fill="none" points="1244.04,759.19,1253.31,740.134,1257.95,760.81,1244.04,759.19" style="stroke: #A80036; stroke-width: 1.0;"/><path d="M1288.02,755.633 C1310.27,782.484 1339.19,817.374 1357.92,839.974 " fill="none" style="stroke: #A80036; stroke-width: 1.0;"/><polygon fill="none" points="1282.55,760,1275.17,740.134,1293.32,751.066,1282.55,760" style="stroke: #A80036; stroke-width: 1.0;"/><path d="M1275.61,566.83 C1270.18,607.865 1263.08,661.536 1259.08,691.731 " fill="none" style="stroke: #A80036; stroke-width: 1.0;"/><polygon fill="none" points="1268.67,565.91,1278.24,547.002,1282.55,567.747,1268.67,565.91" style="stroke: #A80036; stroke-width: 1.0;"/><path d="M1205.65,751.514 C1175.62,772.094 1137.26,798.388 1105.34,820.272 " fill="none" style="stroke: #A80036; stroke-width: 1.0;"/><polygon fill="none" points="1201.8,745.668,1222.25,740.134,1209.71,757.216,1201.8,745.668" style="stroke: #A80036; stroke-width: 1.0;"/><path d="M861.778,751.595 C856.642,754.758 851.327,757.649 846,760 C723.99,813.838 677.03,773.607 552,820 C538.076,825.167 523.649,832.592 511.099,839.821 " fill="none" style="stroke: #A80036; stroke-width: 1.0;"/><polygon fill="none" points="857.868,745.788,878.305,740.19,865.82,757.311,857.868,745.788" style="stroke: #A80036; stroke-width: 1.0;"/><path d="M859.509,751.674 C855.03,754.623 850.482,757.449 846,760 C787.163,793.481 766.746,790.123 706,820 C693.635,826.082 680.447,833.202 668.543,839.879 " fill="none" style="stroke: #A80036; stroke-width: 1.0;"/><polygon fill="none" points="855.765,745.75,876.162,740.008,863.798,757.216,855.765,745.75" style="stroke: #A80036; stroke-width: 1.0;"/><path d="M1203.73,749.946 C1196.59,753.678 1189.23,757.155 1182,760 C1070.03,804.065 1032.79,783.933 918,820 C912.221,821.816 906.315,823.809 900.394,825.912 " fill="none" style="stroke: #A80036; stroke-width: 1.0;"/><polygon fill="none" points="1200.48,743.747,1221.34,740.05,1207.34,755.951,1200.48,743.747" style="stroke: #A80036; stroke-width: 1.0;"/></g></svg>