<?xml version="1.0" encoding="UTF-8" standalone="no"?>
<!DOCTYPE svg PUBLIC "-//W3C//DTD SVG 1.1//EN"
 "http://www.w3.org/Graphics/SVG/1.1/DTD/svg11.dtd">
<!-- Generated by graphviz version 2.34.0 (20130907.0228)
 -->
<!-- Title: overview Pages: 1 -->
<svg width="436pt" height="286pt"
 viewBox="0.00 0.00 436.00 286.00" xmlns="http://www.w3.org/2000/svg" xmlns:xlink="http://www.w3.org/1999/xlink">
<g id="graph0" class="graph" transform="scale(1 1) rotate(0) translate(4 282)">
<title>overview</title>
<g id="clust1" class="cluster"><title>cluster_choreography_models</title>
<polygon fill="none" stroke="#66c2a5" stroke-width="2" points="8,-143 8,-270 420,-270 420,-143 8,-143"/>
<text text-anchor="middle" x="100.5" y="-256.4" font-family="Arial" font-size="12.00">Choreography&#45;Oriented Models</text>
</g>
<g id="clust5" class="cluster"><title>cluster_allpurpose_models</title>
<polygon fill="none" stroke="#66c2a5" stroke-width="2" points="8,-8 8,-135 276,-135 276,-8 8,-8"/>
<text text-anchor="middle" x="68.5" y="-121.4" font-family="Arial" font-size="12.00">All&#45;Purpose Models</text>
</g>
<!-- file_bpmn -->
<g id="node1" class="node"><title>file_bpmn</title>
<ellipse fill="#fee08b" stroke="#fdae61" stroke-width="2" cx="70" cy="-223" rx="18" ry="18"/>
<text text-anchor="middle" x="70" y="-219.9" font-family="Arial" font-size="12.00">.bpmn</text>
</g>
<!-- bpmnchord -->
<g id="node4" class="node"><title>bpmnchord</title>
<path fill="#abdda4" stroke="#66c2a5" stroke-width="2" d="M112,-187C112,-187 28,-187 28,-187 22,-187 16,-181 16,-175 16,-175 16,-163 16,-163 16,-157 22,-151 28,-151 28,-151 112,-151 112,-151 118,-151 124,-157 124,-163 124,-163 124,-175 124,-175 124,-181 118,-187 112,-187"/>
<text text-anchor="middle" x="70" y="-165.2" font-family="Arial" font-size="16.00">BPMN&#45;ChorD</text>
</g>
<!-- file_bpmn&#45;&gt;bpmnchord -->
<g id="edge3" class="edge"><title>file_bpmn&#45;&gt;bpmnchord</title>
<path fill="none" stroke="black" stroke-width="2" d="M52.9761,-216.557C37.579,-209.815 29.7557,-203.074 29.5062,-196.333"/>
<polygon fill="black" stroke="black" points="32.7427,-197.676 33.8605,-187.141 26.4165,-194.68 32.7427,-197.676"/>
</g>
<!-- file_cif -->
<g id="node2" class="node"><title>file_cif</title>
<ellipse fill="#fee08b" stroke="#fdae61" stroke-width="2" cx="214" cy="-223" rx="18" ry="18"/>
<text text-anchor="middle" x="214" y="-219.9" font-family="Arial" font-size="12.00">.cif</text>
</g>
<!-- cif -->
<g id="node5" class="node"><title>cif</title>
<path fill="#abdda4" stroke="#66c2a5" stroke-width="2" d="M256,-187C256,-187 172,-187 172,-187 166,-187 160,-181 160,-175 160,-175 160,-163 160,-163 160,-157 166,-151 172,-151 172,-151 256,-151 256,-151 262,-151 268,-157 268,-163 268,-163 268,-175 268,-175 268,-181 262,-187 256,-187"/>
<text text-anchor="middle" x="214" y="-165.2" font-family="Arial" font-size="16.00">CIF</text>
</g>
<!-- file_cif&#45;&gt;cif -->
<g id="edge8" class="edge"><title>file_cif&#45;&gt;cif</title>
<path fill="none" stroke="black" stroke-width="2" d="M196.976,-216.557C181.579,-209.815 173.756,-203.074 173.506,-196.333"/>
<polygon fill="black" stroke="black" points="176.743,-197.676 177.86,-187.141 170.416,-194.68 176.743,-197.676"/>
</g>
<!-- file_stg -->
<g id="node3" class="node"><title>file_stg</title>
<ellipse fill="#fee08b" stroke="#fdae61" stroke-width="2" cx="358" cy="-223" rx="18" ry="18"/>
<text text-anchor="middle" x="358" y="-219.9" font-family="Arial" font-size="12.00">.stg</text>
</g>
<!-- stgchor -->
<g id="node6" class="node"><title>stgchor</title>
<path fill="#abdda4" stroke="#66c2a5" stroke-width="2" d="M400,-187C400,-187 316,-187 316,-187 310,-187 304,-181 304,-175 304,-175 304,-163 304,-163 304,-157 310,-151 316,-151 316,-151 400,-151 400,-151 406,-151 412,-157 412,-163 412,-163 412,-175 412,-175 412,-181 406,-187 400,-187"/>
<text text-anchor="middle" x="358" y="-165.2" font-family="Arial" font-size="16.00">STG&#45;Chor</text>
</g>
<!-- file_stg&#45;&gt;stgchor -->
<g id="edge6" class="edge"><title>file_stg&#45;&gt;stgchor</title>
<path fill="none" stroke="black" stroke-width="2" d="M340.976,-216.557C325.579,-209.815 317.756,-203.074 317.506,-196.333"/>
<polygon fill="black" stroke="black" points="320.743,-197.676 321.86,-187.141 314.416,-194.68 320.743,-197.676"/>
</g>
<!-- bpmnchord&#45;&gt;file_bpmn -->
<g id="edge2" class="edge"><title>bpmnchord&#45;&gt;file_bpmn</title>
<path fill="none" stroke="black" stroke-width="2" stroke-dasharray="5,2" d="M106.14,-187.141C114.283,-195.414 111.02,-203.687 96.3483,-211.96"/>
<polygon fill="black" stroke="black" points="94.4459,-208.996 87.0239,-216.557 97.5409,-215.275 94.4459,-208.996"/>
</g>
<!-- bpmnchord&#45;&gt;cif -->
<g id="edge1" class="edge"><title>bpmnchord&#45;&gt;cif</title>
<path fill="none" stroke="black" stroke-width="2" d="M124.28,-169C132.56,-169 141.184,-169 149.661,-169"/>
<polygon fill="black" stroke="black" points="149.894,-172.5 159.894,-169 149.894,-165.5 149.894,-172.5"/>
</g>
<!-- cif&#45;&gt;file_cif -->
<g id="edge4" class="edge"><title>cif&#45;&gt;file_cif</title>
<path fill="none" stroke="black" stroke-width="2" d="M250.14,-187.141C258.283,-195.414 255.02,-203.687 240.348,-211.96"/>
<polygon fill="black" stroke="black" points="238.446,-208.996 231.024,-216.557 241.541,-215.275 238.446,-208.996"/>
</g>
<!-- cif&#45;&gt;stgchor -->
<g id="edge7" class="edge"><title>cif&#45;&gt;stgchor</title>
<path fill="none" stroke="black" stroke-width="2" stroke-dasharray="5,2" d="M268.28,-169C276.56,-169 285.184,-169 293.661,-169"/>
<polygon fill="black" stroke="black" points="293.894,-172.5 303.894,-169 293.894,-165.5 293.894,-172.5"/>
</g>
<!-- pn -->
<g id="node9" class="node"><title>pn</title>
<path fill="#abdda4" stroke="#66c2a5" stroke-width="2" d="M112,-52C112,-52 28,-52 28,-52 22,-52 16,-46 16,-40 16,-40 16,-28 16,-28 16,-22 22,-16 28,-16 28,-16 112,-16 112,-16 118,-16 124,-22 124,-28 124,-28 124,-40 124,-40 124,-46 118,-52 112,-52"/>
<text text-anchor="middle" x="70" y="-30.2" font-family="Arial" font-size="16.00">PN</text>
</g>
<!-- cif&#45;&gt;pn -->
<g id="edge14" class="edge"><title>cif&#45;&gt;pn</title>
<path fill="none" stroke="black" stroke-width="2" stroke-dasharray="5,2" d="M174.112,-150.837C168.973,-147.381 164.082,-143.434 160,-139 134.141,-110.91 150.47,-88.516 124,-61 123.114,-60.079 122.19,-59.184 121.233,-58.3146"/>
<polygon fill="black" stroke="black" points="123.39,-55.5582 113.36,-52.1444 119.072,-61.0678 123.39,-55.5582"/>
</g>
<!-- file_dot -->
<g id="node11" class="node"><title>file_dot</title>
<ellipse fill="#fee08b" stroke="#fdae61" stroke-width="2" cx="358" cy="-74" rx="18" ry="18"/>
<text text-anchor="middle" x="358" y="-70.9" font-family="Arial" font-size="12.00">.dot</text>
</g>
<!-- cif&#45;&gt;file_dot -->
<g id="edge16" class="edge"><title>cif&#45;&gt;file_dot</title>
<path fill="none" stroke="black" stroke-width="2" d="M255.067,-150.864C262.191,-147.201 269.428,-143.181 276,-139 297.893,-125.071 320.769,-106.26 336.605,-92.4594"/>
<polygon fill="black" stroke="black" points="339.022,-94.9939 344.201,-85.7512 334.389,-89.7469 339.022,-94.9939"/>
</g>
<!-- stgchor&#45;&gt;file_stg -->
<g id="edge5" class="edge"><title>stgchor&#45;&gt;file_stg</title>
<path fill="none" stroke="black" stroke-width="2" d="M394.14,-187.141C402.283,-195.414 399.02,-203.687 384.348,-211.96"/>
<polygon fill="black" stroke="black" points="382.446,-208.996 375.024,-216.557 385.541,-215.275 382.446,-208.996"/>
</g>
<!-- stgchor&#45;&gt;file_dot -->
<g id="edge17" class="edge"><title>stgchor&#45;&gt;file_dot</title>
<path fill="none" stroke="black" stroke-width="2" d="M358,-150.996C358,-134.761 358,-118.527 358,-102.292"/>
<polygon fill="black" stroke="black" points="361.5,-102.184 358,-92.1836 354.5,-102.184 361.5,-102.184"/>
</g>
<!-- file_pnml -->
<g id="node7" class="node"><title>file_pnml</title>
<ellipse fill="#fee08b" stroke="#fdae61" stroke-width="2" cx="70" cy="-88" rx="18" ry="18"/>
<text text-anchor="middle" x="70" y="-84.9" font-family="Arial" font-size="12.00">.pnml</text>
</g>
<!-- file_pnml&#45;&gt;pn -->
<g id="edge12" class="edge"><title>file_pnml&#45;&gt;pn</title>
<path fill="none" stroke="black" stroke-width="2" d="M52.9761,-81.5565C37.579,-74.8154 29.7557,-68.0742 29.5062,-61.3331"/>
<polygon fill="black" stroke="black" points="32.7427,-62.6763 33.8605,-52.1406 26.4165,-59.6797 32.7427,-62.6763"/>
</g>
<!-- file_aut -->
<g id="node8" class="node"><title>file_aut</title>
<ellipse fill="#fee08b" stroke="#fdae61" stroke-width="2" cx="214" cy="-88" rx="18" ry="18"/>
<text text-anchor="middle" x="214" y="-84.9" font-family="Arial" font-size="12.00">.aut</text>
</g>
<!-- lts -->
<g id="node10" class="node"><title>lts</title>
<path fill="#abdda4" stroke="#66c2a5" stroke-width="2" d="M256,-52C256,-52 172,-52 172,-52 166,-52 160,-46 160,-40 160,-40 160,-28 160,-28 160,-22 166,-16 172,-16 172,-16 256,-16 256,-16 262,-16 268,-22 268,-28 268,-28 268,-40 268,-40 268,-46 262,-52 256,-52"/>
<text text-anchor="middle" x="214" y="-30.2" font-family="Arial" font-size="16.00">LTS</text>
</g>
<!-- file_aut&#45;&gt;lts -->
<g id="edge10" class="edge"><title>file_aut&#45;&gt;lts</title>
<path fill="none" stroke="black" stroke-width="2" d="M196.976,-81.5565C181.579,-74.8154 173.756,-68.0742 173.506,-61.3331"/>
<polygon fill="black" stroke="black" points="176.743,-62.6763 177.86,-52.1406 170.416,-59.6797 176.743,-62.6763"/>
</g>
<!-- pn&#45;&gt;file_pnml -->
<g id="edge11" class="edge"><title>pn&#45;&gt;file_pnml</title>
<path fill="none" stroke="black" stroke-width="2" d="M106.14,-52.1406C114.283,-60.4138 111.02,-68.6871 96.3483,-76.9603"/>
<polygon fill="black" stroke="black" points="94.4459,-73.9958 87.0239,-81.5565 97.5409,-80.2745 94.4459,-73.9958"/>
</g>
<!-- pn&#45;&gt;lts -->
<!-- lts&#45;&gt;file_aut -->
<g id="edge9" class="edge"><title>lts&#45;&gt;file_aut</title>
<path fill="none" stroke="black" stroke-width="2" d="M250.14,-52.1406C258.283,-60.4138 255.02,-68.6871 240.348,-76.9603"/>
<polygon fill="black" stroke="black" points="238.446,-73.9958 231.024,-81.5565 241.541,-80.2745 238.446,-73.9958"/>
</g>
<!-- lts&#45;&gt;file_dot -->
<g id="edge15" class="edge"><title>lts&#45;&gt;file_dot</title>
<path fill="none" stroke="black" stroke-width="2" d="M268.28,-49.0083C289.525,-54.9931 313.033,-61.6149 330.51,-66.538"/>
<polygon fill="black" stroke="black" points="329.964,-70.0204 340.538,-69.3629 331.862,-63.2826 329.964,-70.0204"/>
</g>
</g>
</svg>
